<?xml version="1.0" encoding="UTF-8"?>
<svg version="1.1" xmlns="http://www.w3.org/2000/svg" width="473" height="430">
<path d="M0 0 C1.09626709 0.00572021 2.19253418 0.01144043 3.32202148 0.01733398 C21.24920112 0.40492752 44.98975884 6.72599114 58.76171875 18.953125 C61.46299406 21.33391002 63.18273442 22.45680158 66.8515625 22.625 C70.2929038 22.35174213 73.69932946 21.92641715 77.125 21.5 C79.99767747 21.26826708 82.87253316 21.09773091 85.75 20.9375 C86.48355713 20.89633057 87.21711426 20.85516113 87.97290039 20.81274414 C105.33915517 19.8736583 127.90688391 19.57733506 144.125 26.5 C145.94762952 27.15122714 147.77028118 27.80239284 149.59326172 28.45263672 C162.15667812 32.99672268 172.92501486 38.79050565 183.125 47.5 C183.95 48.13035156 184.775 48.76070312 185.625 49.41015625 C192.42263901 55.09255761 197.79460038 62.81703293 202.125 70.5 C202.125 71.16 202.125 71.82 202.125 72.5 C203.115 72.83 204.105 73.16 205.125 73.5 C205.125 74.82 205.125 76.14 205.125 77.5 C207.57131892 83.8604292 211.76280937 86.87703046 217.5625 90.0703125 C223.69915459 93.49411674 229.20655894 97.62233841 233.125 103.5 C233.6247037 106.6856111 233.83225278 108.45992239 231.99609375 111.16015625 C229.22012216 113.14796054 227.07459182 112.82419697 223.6875 112.75 C222.70438843 112.73356445 222.70438843 112.73356445 221.70141602 112.71679688 C215.47018293 112.58349297 209.24835404 112.20220758 203.02587891 111.86083984 C186.7446121 111.0162165 170.37714169 111.185896 154.125 112.5 C152.99835938 112.58765625 151.87171875 112.6753125 150.7109375 112.765625 C145.88558561 113.36391661 142.98982951 114.06923833 139.75 117.8125 C138.86679753 119.03578618 137.99131603 120.26469751 137.125 121.5 C135.47805515 123.18615782 133.81373879 124.85570171 132.125 126.5 C131.485625 127.180625 130.84625 127.86125 130.1875 128.5625 C123.86693548 134.5 123.86693548 134.5 120.125 134.5 C120.125 135.16 120.125 135.82 120.125 136.5 C113.55227009 138.92875406 108.0464472 140.20277061 101.125 138.5 C100.125 137.5 100.125 137.5 99.81640625 134.8203125 C100.20252635 130.66585577 101.6225563 128.72831453 104.0625 125.375 C107.46385741 120.82295672 107.46385741 120.82295672 109.125 115.5 C107.21472253 115.63771039 107.21472253 115.63771039 105.125 116.5 C103.49086738 118.62544933 103.49086738 118.62544933 102.0625 121.3125 C92.5994882 136.88198523 78.65167667 148.68542017 61.4375 154.8125 C52.88545627 156.58745247 52.88545627 156.58745247 49.125 156.5 C48.135 155.84 47.145 155.18 46.125 154.5 C46.63728544 150.0175024 48.27539481 147.91952623 51.125 144.5 C52.53873357 142.20448007 53.82685383 139.86448052 55.125 137.5 C48.28055265 138.76316782 42.62085487 140.8351575 36.4375 144 C35.12821533 144.66539795 35.12821533 144.66539795 33.79248047 145.34423828 C26.01336753 149.39326728 18.95892523 154.0180816 12.125 159.5 C11.53493164 159.97195801 10.94486328 160.44391602 10.33691406 160.93017578 C-0.90638019 170.02745952 -10.24305432 180.04863253 -18.8125 191.6875 C-19.36881104 192.43596191 -19.92512207 193.18442383 -20.49829102 193.95556641 C-23.07499188 197.53741381 -25.12782318 200.8011934 -26.56640625 204.98828125 C-26.99824219 206.14714844 -27.43007812 207.30601562 -27.875 208.5 C-28.865 208.83 -29.855 209.16 -30.875 209.5 C-31.91047047 212.52282643 -31.91047047 212.52282643 -32.5625 216.0625 C-32.93955078 217.85880859 -32.93955078 217.85880859 -33.32421875 219.69140625 C-33.50597656 220.61824219 -33.68773437 221.54507813 -33.875 222.5 C-32.6375 222.438125 -31.4 222.37625 -30.125 222.3125 C-17.0311975 222.3740696 -5.67210177 227.50793132 3.625 236.5625 C8.37635648 241.44498157 11.15250587 245.97559632 13.125 252.5 C9.84101573 253.60696099 8.13172613 253.39338123 4.9375 252.125 C-5.58367434 248.41867722 -16.18362867 249.28998168 -26.8125 252.625 C-29.875 253.5 -29.875 253.5 -33.13671875 253.3828125 C-37.33728915 253.51449182 -39.94503308 254.50713533 -43.75 256.25 C-44.66072266 256.66161377 -44.66072266 256.66161377 -45.58984375 257.08154297 C-47.35495255 257.88024533 -49.11509907 258.68988687 -50.875 259.5 C-52.54101408 260.20986687 -54.20757128 260.91846241 -55.875 261.625 C-62.37258597 264.41422472 -62.37258597 264.41422472 -66.875 269.5 C-67.535 269.5 -68.195 269.5 -68.875 269.5 C-68.875 270.49 -68.875 271.48 -68.875 272.5 C-70.875 274.6875 -70.875 274.6875 -72.875 276.5 C-70.06144068 275.85852041 -67.24919761 275.21204485 -64.4375 274.5625 C-63.63505859 274.38009766 -62.83261719 274.19769531 -62.00585938 274.00976562 C-58.12547271 273.40338992 -58.12547271 273.40338992 -54.875 271.5 C-40.6948806 268.80269468 -26.34614785 267.51773339 -11.95465088 266.63079834 C-9.72368572 266.49048318 -7.49348824 266.34037588 -5.26318359 266.18994141 C28.08740818 263.98778692 61.19270001 264.91309034 94.55023193 266.34967041 C98.9812618 266.53600835 103.41288415 266.70266039 107.84475708 266.86749268 C140.29988753 268.08220988 140.29988753 268.08220988 154.3125 269.875 C155.13169922 269.97675537 155.95089844 270.07851074 156.79492188 270.18334961 C162.19372243 271.00008822 166.34333386 272.86818828 171.125 275.5 C171.125 276.82 171.125 278.14 171.125 279.5 C168.56534196 281.20643869 166.73235502 282.1083832 163.875 283.0625 C162.78445313 283.43568359 162.78445313 283.43568359 161.671875 283.81640625 C158.49914434 284.66798273 155.38613767 285.08340756 152.125 285.5 C151.3 285.60755615 150.475 285.7151123 149.625 285.82592773 C133.82370817 287.86368236 118.01745937 289.39259675 102.125 290.5 C100.97598206 290.58408615 99.82696411 290.6681723 98.64312744 290.75480652 C88.5913845 291.44624 78.59294042 291.6632284 68.51953125 291.66796875 C66.8630928 291.67119956 65.2066546 291.67456483 63.55021667 291.67805481 C60.09540143 291.68399269 56.64061099 291.68590056 53.18579102 291.68530273 C49.71015156 291.68522198 46.23464533 291.69209243 42.7590332 291.70581055 C15.72502805 291.81075567 -11.01721364 291.03620073 -37.875 287.625 C-38.55271454 287.54073761 -39.23042908 287.45647522 -39.92868042 287.36965942 C-48.63683456 286.28343344 -57.3094912 285.04858455 -65.9375 283.4375 C-66.74509766 283.28748535 -67.55269531 283.1374707 -68.38476562 282.98291016 C-73.45261725 281.96825231 -78.07688179 280.42251502 -82.875 278.5 C-82.11757574 260.60911651 -77.79716216 244.61407546 -64.875 231.5 C-61.05980213 228.24843857 -56.99937252 225.34581704 -52.875 222.5 C-53.14054687 221.33984375 -53.40609375 220.1796875 -53.6796875 218.984375 C-54.03663529 217.40629002 -54.39339593 215.82816269 -54.75 214.25 C-54.92402344 213.49203125 -55.09804687 212.7340625 -55.27734375 211.953125 C-55.83526233 209.47348685 -56.36100785 206.98911067 -56.875 204.5 C-57.06175293 203.62190674 -57.24850586 202.74381348 -57.44091797 201.83911133 C-59.17338601 192.80085823 -59.27404758 183.85671463 -59.25 174.6875 C-59.24912384 173.87152344 -59.24824768 173.05554688 -59.24734497 172.21484375 C-59.09874595 130.15874934 -44.11155943 93.64504009 -14.875 63.5 C-14.16859375 62.76523438 -13.4621875 62.03046875 -12.734375 61.2734375 C-10.28749649 58.77336598 -7.92963319 56.5409749 -5.125 54.4375 C-1.61625684 51.41608228 -0.20622413 48.60327321 0.515625 44.01953125 C0.98552717 36.44769857 -1.05279051 31.30653679 -5.875 25.5 C-10.91257703 20.66392605 -16.77845794 17.23842607 -22.90625 13.95703125 C-24.875 12.5 -24.875 12.5 -25.7734375 10.484375 C-25.875 8.5 -25.875 8.5 -24 5.9375 C-16.83842701 0.35147307 -8.82321547 -0.05385413 0 0 Z M168.125 73.5 C168.125 74.49 168.125 75.48 168.125 76.5 C169.445 75.84 170.765 75.18 172.125 74.5 C170.805 74.17 169.485 73.84 168.125 73.5 Z M111.125 106.5 C112.115 107.985 112.115 107.985 113.125 109.5 C113.125 108.51 113.125 107.52 113.125 106.5 C112.465 106.5 111.805 106.5 111.125 106.5 Z M114.125 106.5 C114.125 107.16 114.125 107.82 114.125 108.5 C114.785 108.17 115.445 107.84 116.125 107.5 C115.465 107.17 114.805 106.84 114.125 106.5 Z M108.125 110.5 C108.455 111.16 108.785 111.82 109.125 112.5 C109.785 111.84 110.445 111.18 111.125 110.5 C110.135 110.5 109.145 110.5 108.125 110.5 Z M111.125 114.5 C111.455 115.16 111.785 115.82 112.125 116.5 C112.455 115.84 112.785 115.18 113.125 114.5 C112.465 114.5 111.805 114.5 111.125 114.5 Z " fill="#227FFC" transform="translate(150.875,92.5)"/>
<path d="M0 0 C4.12080443 0.16939145 8.24187074 0.28989333 12.36474609 0.39550781 C64.27694139 1.75362927 64.27694139 1.75362927 86.07177734 4.54394531 C86.9117627 4.64562012 87.75174805 4.74729492 88.6171875 4.85205078 C94.1598624 5.65505315 98.36004078 7.453975 103.25927734 10.16894531 C103.25927734 11.48894531 103.25927734 12.80894531 103.25927734 14.16894531 C100.6996193 15.87538401 98.86663237 16.77732851 96.00927734 17.73144531 C95.28224609 17.98023438 94.55521484 18.22902344 93.80615234 18.48535156 C90.63342168 19.33692804 87.52041501 19.75235288 84.25927734 20.16894531 C83.43427734 20.27650146 82.60927734 20.38405762 81.75927734 20.49487305 C65.95798552 22.53262767 50.15173672 24.06154206 34.25927734 25.16894531 C33.1102594 25.25303146 31.96124146 25.33711761 30.77740479 25.42375183 C20.72566184 26.11518531 10.72721776 26.33217371 0.65380859 26.33691406 C-1.00262986 26.34014487 -2.65906805 26.34351014 -4.31550598 26.34700012 C-7.77032122 26.35293801 -11.22511167 26.35484587 -14.67993164 26.35424805 C-18.1555711 26.35416729 -21.63107733 26.36103774 -25.10668945 26.37475586 C-52.14131198 26.47970338 -78.88207232 25.70181334 -105.74072266 22.29394531 C-106.4157785 22.21067993 -107.09083435 22.12741455 -107.78634644 22.04162598 C-119.54153644 20.58871997 -131.15857584 18.64612802 -142.74072266 16.16894531 C-142.74072266 14.51894531 -142.74072266 12.86894531 -142.74072266 11.16894531 C-142.17039307 11.05301025 -141.60006348 10.9370752 -141.01245117 10.81762695 C-138.4418909 10.29281407 -135.87256047 9.76220916 -133.30322266 9.23144531 C-132.40539062 9.04904297 -131.50755859 8.86664063 -130.58251953 8.67871094 C-129.72851562 8.50146484 -128.87451172 8.32421875 -127.99462891 8.14160156 C-127.20386963 7.97926025 -126.41311035 7.81691895 -125.59838867 7.6496582 C-123.73867598 7.33603638 -123.73867598 7.33603638 -122.74072266 6.16894531 C-107.87617749 3.34145031 -92.82681131 2.07163148 -77.74072266 1.16894531 C-76.56361725 1.09806702 -76.56361725 1.09806702 -75.36273193 1.02575684 C-50.17015737 -0.47037596 -25.21515947 -1.05480404 0 0 Z " fill="#4F6FAE" transform="translate(218.74072265625,357.8310546875)"/>
<path d="M0 0 C1.09626709 0.00572021 2.19253418 0.01144043 3.32202148 0.01733398 C21.24920112 0.40492752 44.98975884 6.72599114 58.76171875 18.953125 C61.46299406 21.33391002 63.18273442 22.45680158 66.8515625 22.625 C70.2929038 22.35174213 73.69932946 21.92641715 77.125 21.5 C79.99768279 21.26826665 82.87255535 21.09817273 85.75 20.9375 C86.47848145 20.89560547 87.20696289 20.85371094 87.95751953 20.81054688 C98.10680371 20.25064967 107.99734547 20.59833282 118.125 21.5 C113.54817618 23.86732266 110.15221997 24.61664747 104.98828125 24.5625 C103.16200195 24.55089844 103.16200195 24.55089844 101.29882812 24.5390625 C98.74413862 24.5132184 96.18945107 24.48717977 93.63476562 24.4609375 C87.3441973 24.42118667 81.34540392 24.58188546 75.125 25.5 C73.48009866 25.55916911 71.83325933 25.58853134 70.1875 25.5625 C69.43597656 25.55347656 68.68445313 25.54445313 67.91015625 25.53515625 C67.32105469 25.52355469 66.73195313 25.51195313 66.125 25.5 C65.795 25.5 65.465 25.5 65.125 25.5 C64.465 26.16 63.805 26.82 63.125 27.5 C59.19999282 28.2995385 55.95096514 28.87734745 52.125 27.5 C51.63 28.985 51.63 28.985 51.125 30.5 C49.015625 31.34375 49.015625 31.34375 46.375 32 C42.48838114 33.05043753 39.54352123 34.35121522 36.125 36.5 C34.825625 36.7475 34.825625 36.7475 33.5 37 C31.08028256 37.26811011 31.08028256 37.26811011 29.8125 38.9375 C27.5627133 41.02063583 25.24326712 41.19989775 22.31640625 41.8359375 C19.17190862 42.78881557 16.6883009 44.44883741 13.984375 46.28125 C10.36915377 48.6508908 8.58357188 49.5 4.125 49.5 C4.125 50.49 4.125 51.48 4.125 52.5 C1.65 52.995 1.65 52.995 -0.875 53.5 C-1.875 50.5 -1.875 50.5 -0.96875 48.6328125 C-0.6078125 47.92898437 -0.246875 47.22515625 0.125 46.5 C1.32577478 39.2722595 0.1011344 33.82240502 -3.98046875 27.78125 C-9.122248 21.58991168 -15.88947034 17.71447344 -22.90625 13.95703125 C-24.875 12.5 -24.875 12.5 -25.7734375 10.484375 C-25.875 8.5 -25.875 8.5 -24 5.9375 C-16.83842701 0.35147307 -8.82321547 -0.05385413 0 0 Z " fill="#2F93FE" transform="translate(150.875,92.5)"/>
<path d="M0 0 C11.40233822 -0.11377056 22.7399304 0.1852908 34.125 0.8125 C34.92827728 0.85634827 35.73155457 0.90019653 36.55917358 0.94537354 C46.33915841 1.490803 56.09296191 2.12255291 65.8125 3.375 C66.65119629 3.47659424 67.48989258 3.57818848 68.35400391 3.68286133 C73.89842104 4.48535789 78.0993383 6.28423992 83 9 C83 10.32 83 11.64 83 13 C80.44034196 14.70643869 78.60735502 15.6083832 75.75 16.5625 C75.02296875 16.81128906 74.2959375 17.06007813 73.546875 17.31640625 C70.37414434 18.16798273 67.26113767 18.58340756 64 19 C63.175 19.10755615 62.35 19.2151123 61.5 19.32592773 C45.69867231 21.36368698 29.89244933 22.89214353 14 24 C12.28259109 24.12612923 12.28259109 24.12612923 10.53048706 24.25480652 C0.35783711 24.95633048 -9.76238451 25.16326309 -19.95703125 25.16796875 C-21.637426 25.17119653 -23.3178205 25.17456163 -24.99821472 25.17805481 C-28.49499156 25.18398795 -31.99174389 25.1859007 -35.48852539 25.18530273 C-39.91197894 25.18520125 -44.3352715 25.19886566 -48.75868702 25.21607494 C-52.22251572 25.22733196 -55.68630711 25.22921783 -59.15015221 25.22869301 C-60.77840417 25.22985216 -62.40665779 25.23415339 -64.03489113 25.24202538 C-75.81287756 25.29366296 -87.3097461 24.42974986 -99 23 C-99 22.67 -99 22.34 -99 22 C-98.05125 21.731875 -97.1025 21.46375 -96.125 21.1875 C-92.74732727 20.25013412 -92.74732727 20.25013412 -91 17 C-88.4375 16.75 -88.4375 16.75 -86 17 C-85.67 17.33 -85.34 17.66 -85 18 C-84.01 17.01 -83.02 16.02 -82 15 C-81.67 16.65 -81.34 18.3 -81 20 C-80.01 20.33 -79.02 20.66 -78 21 C-78.33 19.68 -78.66 18.36 -79 17 C-75.8035914 15.93453047 -73.34252724 15.92572162 -70 16 C-70 17.32 -70 18.64 -70 20 C-69.01 19.67 -68.02 19.34 -67 19 C-66.26676204 16.98491642 -66.26676204 16.98491642 -66 15 C-62.62182575 14.15545644 -60.32534757 13.89155081 -57 15 C-57 15.66 -57 16.32 -57 17 C-57.99 17 -58.98 17 -60 17 C-60.66 18.65 -61.32 20.3 -62 22 C-56.98464948 21.67039784 -56.98464948 21.67039784 -53 19 C-52.505 20.98 -52.505 20.98 -52 23 C-37.81 23 -23.62 23 -9 23 C-8.505 21.515 -8.505 21.515 -8 20 C-9.32 19.67 -10.64 19.34 -12 19 C-12 18.34 -12 17.68 -12 17 C-9.72443493 17.50568113 -7.84617721 18.0769114 -5.75 19.125 C-1.86472961 20.3612224 0.99744596 19.67839899 5 19 C5.185625 18.0409375 5.185625 18.0409375 5.375 17.0625 C5.58125 16.381875 5.7875 15.70125 6 15 C6.66 14.67 7.32 14.34 8 14 C8 12.68 8 11.36 8 10 C7.34 10 6.68 10 6 10 C6 10.66 6 11.32 6 12 C4.35 12.66 2.7 13.32 1 14 C-0.35432675 12.68799596 -1.68733482 11.35368596 -3 10 C-3 9.67 -3 9.34 -3 9 C-1.02 9 0.96 9 3 9 C0.69 8.67 -1.62 8.34 -4 8 C-3.625 5.0625 -3.625 5.0625 -3 2 C-2.34 1.67 -1.68 1.34 -1 1 C-0.938125 1.61875 -0.87625 2.2375 -0.8125 2.875 C-0.171081 5.27761141 -0.171081 5.27761141 2.5625 6.25 C3.366875 6.4975 4.17125 6.745 5 7 C5 7.66 5 8.32 5 9 C6.32 8.67 7.64 8.34 9 8 C8.01 7.34 7.02 6.68 6 6 C6 5.34 6 4.68 6 4 C4.35 4.33 2.7 4.66 1 5 C0.505 2.525 0.505 2.525 0 0 Z " fill="#566594" transform="translate(239,359)"/>
<path d="M0 0 C-0.40751042 7.39139585 -1.58507186 13.99822721 -4 21 C-5.65 20.67 -7.3 20.34 -9 20 C-9 20.66 -9 21.32 -9 22 C-10.00353516 22.38478516 -10.00353516 22.38478516 -11.02734375 22.77734375 C-25.15183939 28.40818295 -38.20423162 35.33446473 -50 45 C-50.53077148 45.42539063 -51.06154297 45.85078125 -51.60839844 46.2890625 C-63.57966098 55.89415761 -72.98169247 66.5516138 -81.7109375 79.15844727 C-82.23945313 79.91440186 -82.76796875 80.67035645 -83.3125 81.44921875 C-83.78300781 82.13330811 -84.25351563 82.81739746 -84.73828125 83.5222168 C-85.36283203 84.25371948 -85.36283203 84.25371948 -86 85 C-86.66 85 -87.32 85 -88 85 C-89.74261825 78.31996339 -87.88860879 74.10629959 -85 68 C-84.61328125 67.15953125 -84.2265625 66.3190625 -83.828125 65.453125 C-81.0843379 59.71611562 -78.05868389 53.92755171 -74 49 C-73.34 49 -72.68 49 -72 49 C-71.896875 48.41605469 -71.79375 47.83210938 -71.6875 47.23046875 C-70.39020452 43.02162945 -66.96671469 40.15108679 -64 37 C-63.32582031 36.27296875 -62.65164062 35.5459375 -61.95703125 34.796875 C-48.50080346 20.77690724 -20.38335059 0 0 0 Z " fill="#397FEF" transform="translate(212,208)"/>
<path d="M0 0 C0.62582789 9.38741831 -1.83390861 19.0356091 -7 27 C-7.639375 27.12503906 -8.27875 27.25007813 -8.9375 27.37890625 C-11.16218883 27.81885217 -11.16218883 27.81885217 -12.34375 29.890625 C-12.7253125 30.66921875 -13.106875 31.4478125 -13.5 32.25 C-15.30770114 35.88983067 -17.38878968 38.87982495 -20 42 C-17.91549283 41.7168444 -15.83241633 41.42314331 -13.75 41.125 C-12.58984375 40.96257812 -11.4296875 40.80015625 -10.234375 40.6328125 C-7.37136295 40.07265797 -5.54925403 39.29641551 -3 38 C-1.68 38 -0.36 38 1 38 C1 37.34 1 36.68 1 36 C1.52207031 35.75507813 2.04414063 35.51015625 2.58203125 35.2578125 C16.72923294 28.07271882 25.4640221 15.90899566 34 3 C35.65 3.33 37.3 3.66 39 4 C38.29875 4.639375 37.5975 5.27875 36.875 5.9375 C34.62522269 8.17470872 32.94873621 10.51127871 31.25 13.1875 C21.78628503 27.7081619 8.65005086 38.49743952 -7.6875 44.3125 C-16.23954373 46.08745247 -16.23954373 46.08745247 -20 46 C-20.99 45.34 -21.98 44.68 -23 44 C-22.48771456 39.5175024 -20.84960519 37.41952623 -18 34 C-16.58626643 31.70448007 -15.29814617 29.36448052 -14 27 C-14.99 27 -15.98 27 -17 27 C-17 26.34 -17 25.68 -17 25 C-15.68 25 -14.36 25 -13 25 C-11.18927883 20.11105283 -9.79125733 15.31919981 -8.8984375 10.17578125 C-8.64199463 8.71458862 -8.64199463 8.71458862 -8.38037109 7.22387695 C-8.1920874 6.12305786 -8.1920874 6.12305786 -8 5 C-29.76854212 13.44857914 -49.84023155 21.7353823 -67 38 C-67.50063965 38.4650293 -68.0012793 38.93005859 -68.51708984 39.40917969 C-73.46790758 44.02465675 -77.01721361 47.90295455 -80 54 C-81.50390625 55.6171875 -81.50390625 55.6171875 -83 57 C-87.22964335 62.61696637 -90.44411543 68.46326868 -93 75 C-93.31195313 75.76570313 -93.62390625 76.53140625 -93.9453125 77.3203125 C-95.85751693 82.40229725 -95.90406986 85.57558086 -95 91 C-95.75 94.875 -95.75 94.875 -97 98 C-97.99 98.33 -98.98 98.66 -100 99 C-101.03547047 102.02282643 -101.03547047 102.02282643 -101.6875 105.5625 C-102.06455078 107.35880859 -102.06455078 107.35880859 -102.44921875 109.19140625 C-102.63097656 110.11824219 -102.81273437 111.04507813 -103 112 C-101.7625 111.938125 -100.525 111.87625 -99.25 111.8125 C-86.1561975 111.8740696 -74.79710177 117.00793132 -65.5 126.0625 C-60.74864352 130.94498157 -57.97249413 135.47559632 -56 142 C-59.28398427 143.10696099 -60.99327387 142.89338123 -64.1875 141.625 C-74.70867434 137.91867722 -85.30862867 138.78998168 -95.9375 142.125 C-99 143 -99 143 -102.26171875 142.8828125 C-106.46228915 143.01449182 -109.07003308 144.00713533 -112.875 145.75 C-113.78572266 146.16161377 -113.78572266 146.16161377 -114.71484375 146.58154297 C-116.47995255 147.38024533 -118.24009907 148.18988687 -120 149 C-121.66601408 149.70986687 -123.33257128 150.41846241 -125 151.125 C-131.49758597 153.91422472 -131.49758597 153.91422472 -136 159 C-136.66 159 -137.32 159 -138 159 C-138 159.99 -138 160.98 -138 162 C-139.485 162.99 -139.485 162.99 -141 164 C-141.66 164.99 -142.32 165.98 -143 167 C-143.66 167.99 -144.32 168.98 -145 170 C-147.50357861 169.1654738 -149.66785852 168.20628008 -152 167 C-150.60265124 148.41734707 -146.44572037 132.96410803 -132 120 C-131.42121094 119.45214844 -130.84242188 118.90429688 -130.24609375 118.33984375 C-129.62863281 117.77394531 -129.01117188 117.20804687 -128.375 116.625 C-127.52035156 115.83996094 -127.52035156 115.83996094 -126.6484375 115.0390625 C-126.10445312 114.69617188 -125.56046875 114.35328125 -125 114 C-123.515 114.495 -123.515 114.495 -122 115 C-123.22793624 116.0847278 -124.4574162 117.16770815 -125.6875 118.25 C-126.37199219 118.85328125 -127.05648437 119.4565625 -127.76171875 120.078125 C-130 122 -130 122 -132.54296875 123.87109375 C-140.37440992 130.65668268 -146.25337732 144.42126811 -147.4140625 154.6484375 C-147.48367187 155.87820313 -147.55328125 157.10796875 -147.625 158.375 C-147.69976562 159.62023437 -147.77453125 160.86546875 -147.8515625 162.1484375 C-147.90054688 163.08945312 -147.94953125 164.03046875 -148 165 C-144.53301415 163.84433805 -144.15587173 162.75645728 -142.2734375 159.8125 C-134.765653 149.1265736 -124.20351081 145.25603434 -112 142 C-111.87625 141.030625 -111.7525 140.06125 -111.625 139.0625 C-111.41875 138.051875 -111.2125 137.04125 -111 136 C-110.34 135.67 -109.68 135.34 -109 135 C-109 135.99 -109 136.98 -109 138 C-106.33259077 137.88481642 -103.66652759 137.75810454 -101 137.625 C-99.88431641 137.57859375 -99.88431641 137.57859375 -98.74609375 137.53125 C-94.95770771 137.33359508 -91.44297244 136.94724886 -87.76953125 135.9765625 C-79.09012882 133.72801265 -70.63992358 135.12829508 -62 137 C-67.78356882 126.45779861 -76.35999995 120.09912075 -87.8515625 116.67578125 C-93.19472166 115.52892451 -98.54735922 115.17589164 -104 115 C-105.34461766 108.81475875 -104.51279959 104.09591166 -103 98 C-102.74790771 96.95344238 -102.74790771 96.95344238 -102.49072266 95.88574219 C-97.61246042 75.75711303 -89.91073999 60.12307942 -77 44 C-76.17628906 42.96875 -75.35257812 41.9375 -74.50390625 40.875 C-70.50592466 36.28449384 -65.76524957 32.76012704 -61 29 C-59.99582031 28.16855469 -58.99164063 27.33710938 -57.95703125 26.48046875 C-50.82553501 20.66073019 -43.46903387 16.40559891 -35.140625 12.49609375 C-32.19718507 11.30860952 -32.19718507 11.30860952 -31 10 C-29.33382885 9.95936168 -27.66611905 9.957279 -26 10 C-26 9.34 -26 8.68 -26 8 C-24.81921875 7.59007812 -23.6384375 7.18015625 -22.421875 6.7578125 C-20.86453448 6.21368147 -19.3072455 5.6694029 -17.75 5.125 C-16.97269531 4.85558594 -16.19539062 4.58617187 -15.39453125 4.30859375 C-14.64042969 4.04433594 -13.88632813 3.78007812 -13.109375 3.5078125 C-12.07248535 3.14647217 -12.07248535 3.14647217 -11.01464844 2.77783203 C-8.95365537 2.02519494 -8.95365537 2.02519494 -6.91503906 0.91357422 C-4.51197924 -0.23281154 -2.62899988 -0.14605555 0 0 Z " fill="#165DEC" transform="translate(220,203)"/>
<path d="M0 0 C36.96367978 -0.24357656 36.96367978 -0.24357656 45 1 C47 3 47 3 47 5 C48.32 5 49.64 5 51 5 C53.25 7.5 53.25 7.5 55 10 C53.35 10 51.7 10 50 10 C50 9.34 50 8.68 50 8 C49.030625 7.731875 48.06125 7.46375 47.0625 7.1875 C46.051875 6.795625 45.04125 6.40375 44 6 C43.505 4.515 43.505 4.515 43 3 C42.34 4.98 41.68 6.96 41 9 C43.64 9 46.28 9 49 9 C47 11 47 11 45 12 C45.66 12.66 46.32 13.32 47 14 C49.10820797 13.6814823 49.10820797 13.6814823 51 13 C51 12.34 51 11.68 51 11 C51.66 11 52.32 11 53 11 C53.625 12.8125 53.625 12.8125 54 15 C53.34 15.99 52.68 16.98 52 18 C51.34 18 50.68 18 50 18 C50 18.66 50 19.32 50 20 C41.96498906 22.27571116 41.96498906 22.27571116 37.9375 21.125 C37.298125 20.75375 36.65875 20.3825 36 20 C36.33 20.33 36.66 20.66 37 21 C37 21.66 37 22.32 37 23 C37.66 23.33 38.32 23.66 39 24 C36.31124746 24.89625085 34.7209223 25.13456016 31.95922852 25.16113281 C30.74765831 25.17554413 30.74765831 25.17554413 29.51161194 25.19024658 C28.64281906 25.19449646 27.77402618 25.19874634 26.87890625 25.203125 C25.98259995 25.20882507 25.08629364 25.21452515 24.16282654 25.22039795 C22.2673358 25.22984164 20.3718287 25.23637943 18.47631836 25.24023438 C15.57702066 25.24995133 12.67842855 25.28098502 9.77929688 25.3125 C7.93750421 25.31902916 6.09570648 25.32427997 4.25390625 25.328125 C2.95375328 25.3466452 2.95375328 25.3466452 1.62733459 25.36553955 C-4.41808548 25.34316482 -4.41808548 25.34316482 -7.57836914 23.47949219 C-8.04750732 22.99125977 -8.51664551 22.50302734 -9 22 C-9.33 22.33 -9.66 22.66 -10 23 C-12.33297433 23.04092937 -14.66705225 23.04241723 -17 23 C-16.34 21.35 -15.68 19.7 -15 18 C-14.01 18 -13.02 18 -12 18 C-12.66 16.68 -13.32 15.36 -14 14 C-12.68 14.33 -11.36 14.66 -10 15 C-9.67 12.69 -9.34 10.38 -9 8 C-8.01 8 -7.02 8 -6 8 C-6 8.66 -6 9.32 -6 10 C-5.34 10.33 -4.68 10.66 -4 11 C-4.66 11 -5.32 11 -6 11 C-5.67 12.65 -5.34 14.3 -5 16 C-4.67 14.68 -4.34 13.36 -4 12 C-3.34 12 -2.68 12 -2 12 C-2 10.68 -2 9.36 -2 8 C-2.66 7.67 -3.32 7.34 -4 7 C-2.906875 7.185625 -1.81375 7.37125 -0.6875 7.5625 C2.93624133 8.2578068 2.93624133 8.2578068 6 7 C6 6.34 6 5.68 6 5 C5.34 5 4.68 5 4 5 C4 4.34 4 3.68 4 3 C2.68 3 1.36 3 0 3 C0 2.01 0 1.02 0 0 Z " fill="#526C9D" transform="translate(194,358)"/>
<path d="M0 0 C0.495 0.495 0.495 0.495 1 1 C3.14065739 1.32749974 5.28805846 1.61123645 7.4375 1.875 C13.53358915 2.69862719 19.19220808 3.99269864 25 6 C25 6.66 25 7.32 25 8 C20.68588107 9.2486164 16.63352608 8.86378087 12.203125 8.56640625 C0.71340891 7.89422551 -10.7444346 7.88690301 -22.25 7.9375 C-24.27864471 7.94253426 -26.30729065 7.9470937 -28.3359375 7.95117188 C-33.22398984 7.96200374 -38.11198052 7.97915762 -43 8 C-43 7.34 -43 6.68 -43 6 C-52.79530425 6.29713789 -62.05982984 6.62686088 -71.53125 9.3671875 C-74.81083939 10.20784174 -77.63764158 10.22925171 -81 10 C-81.33 9.34 -81.66 8.68 -82 8 C-81.01 8 -80.02 8 -79 8 C-79 7.34 -79 6.68 -79 6 C-78.34 6 -77.68 6 -77 6 C-77.33 5.01 -77.66 4.02 -78 3 C-76.33333333 2.33333333 -74.66666667 1.66666667 -73 1 C-72.21625 0.608125 -71.4325 0.21625 -70.625 -0.1875 C-67.16274469 -1.25915045 -64.51467028 -0.68915104 -61 0 C-61 -0.66 -61 -1.32 -61 -2 C-40.96109672 -4.68629622 -19.82395591 -3.87641691 0 0 Z " fill="#3C8AF3" transform="translate(345,196)"/>
<path d="M0 0 C7.14892246 -0.1748853 14.04161229 0.29703383 21.125 1.25 C22.53072266 1.41435547 22.53072266 1.41435547 23.96484375 1.58203125 C30.08124293 2.39469967 34.63343042 3.94421214 40 7 C40 8.32 40 9.64 40 11 C37.44034196 12.70643869 35.60735502 13.6083832 32.75 14.5625 C32.02296875 14.81128906 31.2959375 15.06007813 30.546875 15.31640625 C27.38930364 16.1639139 24.23757925 16.60224235 21 17 C20.08992188 17.11287354 19.17984375 17.22574707 18.2421875 17.34204102 C15.03718103 17.73427809 11.83125663 18.11812274 8.625 18.5 C6.99691406 18.69529297 6.99691406 18.69529297 5.3359375 18.89453125 C2.22436729 19.26656682 -0.88777649 19.63347728 -4 20 C-4.85166748 20.10368896 -5.70333496 20.20737793 -6.58081055 20.31420898 C-10.76509807 20.80934163 -14.84094911 21.11593735 -19.0625 21.0625 C-20.00222656 21.05347656 -20.94195312 21.04445313 -21.91015625 21.03515625 C-22.59980469 21.02355469 -23.28945313 21.01195312 -24 21 C-23.67 18.69 -23.34 16.38 -23 14 C-22.34 14.33 -21.68 14.66 -21 15 C-21.33 15.99 -21.66 16.98 -22 18 C-21.01 18 -20.02 18 -19 18 C-19 17.01 -19 16.02 -19 15 C-17.68 15.33 -16.36 15.66 -15 16 C-15.66 16 -16.32 16 -17 16 C-17 16.66 -17 17.32 -17 18 C-16.01 18 -15.02 18 -14 18 C-13.67 16.35 -13.34 14.7 -13 13 C-13.66 12.67 -14.32 12.34 -15 12 C-15 12.66 -15 13.32 -15 14 C-15.66 14 -16.32 14 -17 14 C-17 13.34 -17 12.68 -17 12 C-19.475 11.01 -19.475 11.01 -22 10 C-22 9.34 -22 8.68 -22 8 C-17.25 6.875 -17.25 6.875 -15 8 C-15.33 6.68 -15.66 5.36 -16 4 C-13 2 -13 2 -9 2 C-9 2.99 -9 3.98 -9 5 C-7.68 4.34 -6.36 3.68 -5 3 C-4.34 4.65 -3.68 6.3 -3 8 C-5.97 7.505 -5.97 7.505 -9 7 C-7.31192092 11.23084903 -7.31192092 11.23084903 -4 14 C-3.67 13.34 -3.34 12.68 -3 12 C-2.01 12 -1.02 12 0 12 C0 11.34 0 10.68 0 10 C-0.66 10 -1.32 10 -2 10 C-2 9.34 -2 8.68 -2 8 C-0.68 8.33 0.64 8.66 2 9 C2.15288097 6.93281598 2.15288097 6.93281598 1 5.0625 C0 3 0 3 0 0 Z " fill="#4F6789" transform="translate(282,361)"/>
<path d="M0 0 C0.33 0.66 0.66 1.32 1 2 C1.99 1.67 2.98 1.34 4 1 C4 1.66 4 2.32 4 3 C3.34 3 2.68 3 2 3 C2 3.66 2 4.32 2 5 C1.01 5.33 0.02 5.66 -1 6 C3.8600485 6.28038741 7.64431817 5.89848485 12.3125 4.5 C20.74171715 2.18928796 29.34010285 2.75542131 38 3 C38 3.66 38 4.32 38 5 C38.99 5.33 39.98 5.66 41 6 C40.27554688 6.06316406 39.55109375 6.12632812 38.8046875 6.19140625 C31.86441587 7.03653048 31.86441587 7.03653048 26.625 11.3125 C25.74179753 12.53578618 24.86631603 13.76469751 24 15 C22.35305515 16.68615782 20.68873879 18.35570171 19 20 C18.360625 20.680625 17.72125 21.36125 17.0625 22.0625 C10.74193548 28 10.74193548 28 7 28 C7 28.66 7 29.32 7 30 C0.42727009 32.42875406 -5.0785528 33.70277061 -12 32 C-13 31 -13 31 -13.30859375 28.31640625 C-12.92287864 24.17118946 -11.51099174 22.27244043 -9.0625 18.9375 C-5.54062077 14.11122105 -4 10.96570632 -4 5 C-3.01 4.34 -2.02 3.68 -1 3 C-0.67 2.01 -0.34 1.02 0 0 Z M-2 8 C-1.67 8.66 -1.34 9.32 -1 10 C-0.67 9.34 -0.34 8.68 0 8 C-0.66 8 -1.32 8 -2 8 Z " fill="#2077FD" transform="translate(264,199)"/>
<path d="M0 0 C1.03115279 3.26913624 0.9638984 5.86041348 0.5625 9.25 C0.46066406 10.14203125 0.35882813 11.0340625 0.25390625 11.953125 C0.17011719 12.62859375 0.08632812 13.3040625 0 14 C0.66 14 1.32 14 2 14 C1.67 14.99 1.34 15.98 1 17 C0.34 17 -0.32 17 -1 17 C-1.99 21.29 -2.98 25.58 -4 30 C-2.7625 29.938125 -1.525 29.87625 -0.25 29.8125 C12.8438025 29.8740696 24.20289823 35.00793132 33.5 44.0625 C38.25135648 48.94498157 41.02750587 53.47559632 43 60 C39.71601573 61.10696099 38.00672613 60.89338123 34.8125 59.625 C24.29132566 55.91867722 13.69137133 56.78998168 3.0625 60.125 C0 61 0 61 -3.26171875 60.8828125 C-7.46228915 61.01449182 -10.07003308 62.00713533 -13.875 63.75 C-14.48214844 64.02440918 -15.08929688 64.29881836 -15.71484375 64.58154297 C-17.47995255 65.38024533 -19.24009907 66.18988687 -21 67 C-22.66601408 67.70986687 -24.33257128 68.41846241 -26 69.125 C-32.49758597 71.91422472 -32.49758597 71.91422472 -37 77 C-37.66 77 -38.32 77 -39 77 C-39 77.99 -39 78.98 -39 80 C-40.485 80.99 -40.485 80.99 -42 82 C-42.66 82.99 -43.32 83.98 -44 85 C-44.66 85.99 -45.32 86.98 -46 88 C-48.50357861 87.1654738 -50.66785852 86.20628008 -53 85 C-51.60265124 66.41734707 -47.44572037 50.96410803 -33 38 C-32.42121094 37.45214844 -31.84242187 36.90429688 -31.24609375 36.33984375 C-30.62863281 35.77394531 -30.01117188 35.20804687 -29.375 34.625 C-28.52035156 33.83996094 -28.52035156 33.83996094 -27.6484375 33.0390625 C-27.10445312 32.69617188 -26.56046875 32.35328125 -26 32 C-24.515 32.495 -24.515 32.495 -23 33 C-24.22793624 34.0847278 -25.4574162 35.16770815 -26.6875 36.25 C-27.37199219 36.85328125 -28.05648437 37.4565625 -28.76171875 38.078125 C-31 40 -31 40 -33.54296875 41.87109375 C-41.37440992 48.65668268 -47.25337732 62.42126811 -48.4140625 72.6484375 C-48.48367187 73.87820313 -48.55328125 75.10796875 -48.625 76.375 C-48.69976562 77.62023437 -48.77453125 78.86546875 -48.8515625 80.1484375 C-48.90054688 81.08945312 -48.94953125 82.03046875 -49 83 C-45.53301415 81.84433805 -45.15587173 80.75645728 -43.2734375 77.8125 C-35.765653 67.1265736 -25.20351081 63.25603434 -13 60 C-12.814375 58.5459375 -12.814375 58.5459375 -12.625 57.0625 C-12.41875 56.051875 -12.2125 55.04125 -12 54 C-11.34 53.67 -10.68 53.34 -10 53 C-10 53.99 -10 54.98 -10 56 C-7.33259077 55.88481642 -4.66652759 55.75810454 -2 55.625 C-1.25621094 55.5940625 -0.51242188 55.563125 0.25390625 55.53125 C4.04229229 55.33359508 7.55702756 54.94724886 11.23046875 53.9765625 C19.90987118 51.72801265 28.36007642 53.12829508 37 55 C31.21643118 44.45779861 22.64000005 38.09912075 11.1484375 34.67578125 C5.80527834 33.52892451 0.45264078 33.17589164 -5 33 C-6.34016318 26.83524935 -5.4900422 22.07718783 -4 16 C-3.83773926 15.33564941 -3.67547852 14.67129883 -3.50830078 13.98681641 C-2.36428848 9.31795307 -1.19031656 4.657258 0 0 Z " fill="#134FDD" transform="translate(121,285)"/>
<path d="M0 0 C-0.33 0.99 -0.66 1.98 -1 3 C-2.70703125 3.765625 -2.70703125 3.765625 -4.8125 4.25 C-5.49957031 4.42015625 -6.18664062 4.5903125 -6.89453125 4.765625 C-9.19499821 5.02170666 -10.80629727 4.69015367 -13 4 C-13.33 5.32 -13.66 6.64 -14 8 C-12.68 8 -11.36 8 -10 8 C-9.34 8 -8.68 8 -8 8 C-7.34 8.66 -6.68 9.32 -6 10 C-2.41656024 10.16677282 -2.41656024 10.16677282 1 10 C1 10.99 1 11.98 1 13 C1.66 12.67 2.32 12.34 3 12 C4.70702735 11.93003986 6.41668003 11.91559846 8.125 11.9375 C9.03507812 11.94652344 9.94515625 11.95554687 10.8828125 11.96484375 C11.93082031 11.98224609 11.93082031 11.98224609 13 12 C13 12.99 13 13.98 13 15 C12.34 15.66 11.68 16.32 11 17 C11.99 17.66 12.98 18.32 14 19 C14 19.66 14 20.32 14 21 C6.03042333 21.28867807 -1.79444992 20.22391205 -9.6875 19.25 C-10.41500458 19.1617395 -11.14250916 19.073479 -11.89205933 18.98254395 C-24.03769763 17.50127484 -36.03064735 15.55999806 -48 13 C-48 11.35 -48 9.7 -48 8 C-47.14450562 7.82609741 -47.14450562 7.82609741 -46.27172852 7.64868164 C-43.70116824 7.12386875 -41.13183782 6.59326385 -38.5625 6.0625 C-37.21575195 5.78889648 -37.21575195 5.78889648 -35.84179688 5.50976562 C-34.98779297 5.33251953 -34.13378906 5.15527344 -33.25390625 4.97265625 C-32.46314697 4.81031494 -31.6723877 4.64797363 -30.85766602 4.48071289 C-28.99795332 4.16709107 -28.99795332 4.16709107 -28 3 C-25.02963425 2.32633932 -22.00808974 1.91019982 -19 1.4375 C-18.17371094 1.29892578 -17.34742187 1.16035156 -16.49609375 1.01757812 C-10.9294027 0.13335412 -5.63568276 -0.13066603 0 0 Z " fill="#466AB7" transform="translate(124,361)"/>
<path d="M0 0 C-0.66 0 -1.32 0 -2 0 C-2 0.66 -2 1.32 -2 2 C-1.43152344 2.03738281 -0.86304688 2.07476562 -0.27734375 2.11328125 C5.06288288 2.56795831 9.1080362 3.68275399 14 6 C15.7066035 6.65039063 17.41505206 7.2959538 19.125 7.9375 C23.02543587 9.48240156 25.77974442 11.28820582 29 14 C31.08445006 15.05819783 33.18693002 16.03487725 35.328125 16.97265625 C37 18 37 18 38 21 C32.01566099 21.28623646 27.70705917 20.56438223 22.1875 18.3125 C21.48447754 18.03921875 20.78145508 17.7659375 20.05712891 17.484375 C16.23997515 15.98025027 12.55168989 14.32349563 8.875 12.5 C-3.57824063 6.77672923 -16.98421294 3.46258884 -30.6875 3.4375 C-31.57808105 3.43516357 -32.46866211 3.43282715 -33.38623047 3.43041992 C-37.95288617 3.36347468 -37.95288617 3.36347468 -41.75708008 5.53149414 C-42.16724365 6.01610107 -42.57740723 6.50070801 -43 7 C-43.99 6.67 -44.98 6.34 -46 6 C-43.76844725 2.06821658 -41.51315675 0.53317934 -37.3125 -0.75 C-26.34343624 -3.33787563 -10.21281341 -5.62278491 0 0 Z " fill="#44B5FE" transform="translate(173,96)"/>
<path d="M0 0 C0.99 1.98 0.99 1.98 2 4 C2.33 3.01 2.66 2.02 3 1 C3.495 1.495 3.495 1.495 4 2 C3.71269945 4.33944736 3.38063221 6.6739143 3 9 C5.31 9.33 7.62 9.66 10 10 C10 10.33 10 10.66 10 11 C-8.2775387 12.20491436 -26.55755734 12.18763736 -44.86572266 12.18530273 C-49.24979744 12.18520086 -53.63371123 12.19891743 -58.01774788 12.21607494 C-61.46012055 12.22732615 -64.90245566 12.22921807 -68.34484482 12.22869301 C-69.95914139 12.229851 -71.57343968 12.23414518 -73.18771744 12.24202538 C-84.91374743 12.29398308 -96.36120657 11.420955 -108 10 C-108 9.67 -108 9.34 -108 9 C-106.576875 8.5978125 -106.576875 8.5978125 -105.125 8.1875 C-101.74732727 7.25013412 -101.74732727 7.25013412 -100 4 C-97.4375 3.75 -97.4375 3.75 -95 4 C-94.67 4.33 -94.34 4.66 -94 5 C-93.01 4.01 -92.02 3.02 -91 2 C-90.67 3.65 -90.34 5.3 -90 7 C-89.01 7.33 -88.02 7.66 -87 8 C-87.33 6.68 -87.66 5.36 -88 4 C-84.8035914 2.93453047 -82.34252724 2.92572162 -79 3 C-79 4.32 -79 5.64 -79 7 C-78.01 6.67 -77.02 6.34 -76 6 C-75.26676204 3.98491642 -75.26676204 3.98491642 -75 2 C-71.62182575 1.15545644 -69.32534757 0.89155081 -66 2 C-66 2.66 -66 3.32 -66 4 C-66.99 4 -67.98 4 -69 4 C-69.66 5.65 -70.32 7.3 -71 9 C-65.98464948 8.67039784 -65.98464948 8.67039784 -62 6 C-61.505 7.98 -61.505 7.98 -61 10 C-46.81 10 -32.62 10 -18 10 C-17.67 9.01 -17.34 8.02 -17 7 C-18.32 6.67 -19.64 6.34 -21 6 C-21 5.34 -21 4.68 -21 4 C-18.72443493 4.50568113 -16.84617721 5.0769114 -14.75 6.125 C-10.86472961 7.3612224 -8.00255404 6.67839899 -4 6 C-3.896875 5.38125 -3.79375 4.7625 -3.6875 4.125 C-3 2 -3 2 0 0 Z M8 7 C8.33 7.66 8.66 8.32 9 9 C8.34 8.67 7.68 8.34 7 8 C7.33 7.67 7.66 7.34 8 7 Z " fill="#516BA2" transform="translate(248,372)"/>
<path d="M0 0 C1.28970703 -0.03867187 1.28970703 -0.03867187 2.60546875 -0.078125 C3.33378906 0.03015625 4.06210938 0.1384375 4.8125 0.25 C7.11393236 3.70214853 6.95083854 4.48479324 6.4375 8.4375 C6.32664063 9.33855469 6.21578125 10.23960937 6.1015625 11.16796875 C5.95847656 12.19857422 5.95847656 12.19857422 5.8125 13.25 C5.214375 12.92 4.61625 12.59 4 12.25 C1.75863529 11.04212012 1.75863529 11.04212012 -1.1875 11.25 C-1.1875 11.91 -1.1875 12.57 -1.1875 13.25 C-3.8275 13.58 -6.4675 13.91 -9.1875 14.25 C-9.1875 13.26 -9.1875 12.27 -9.1875 11.25 C-10.26 11.45625 -11.3325 11.6625 -12.4375 11.875 C-16.36856098 12.2681061 -16.92565782 11.93353145 -20.1875 10.25 C-23.37272204 10.55803455 -23.37272204 10.55803455 -26.1875 11.25 C-26.1875 10.59 -26.1875 9.93 -26.1875 9.25 C-25.5275 9.25 -24.8675 9.25 -24.1875 9.25 C-23.8575 7.6 -23.5275 5.95 -23.1875 4.25 C-22.465625 4.435625 -21.74375 4.62125 -21 4.8125 C-18.0402768 5.27290139 -16.07119435 4.95143917 -13.1875 4.25 C-12.5275 4.25 -11.8675 4.25 -11.1875 4.25 C-10.8575 3.26 -10.5275 2.27 -10.1875 1.25 C-6.79676276 0.3458034 -3.49217897 0.10107609 0 0 Z " fill="#486DBA" transform="translate(134.1875,359.75)"/>
<path d="M0 0 C0.33 0.66 0.66 1.32 1 2 C1.99 1.67 2.98 1.34 4 1 C4 1.66 4 2.32 4 3 C3.34 3 2.68 3 2 3 C2 3.66 2 4.32 2 5 C1.01 5.33 0.02 5.66 -1 6 C-0.01 6.66 0.98 7.32 2 8 C0.68 8 -0.64 8 -2 8 C-2 8.66 -2 9.32 -2 10 C-1.01 10.33 -0.02 10.66 1 11 C0.34 11.66 -0.32 12.32 -1 13 C-1.268125 13.7425 -1.53625 14.485 -1.8125 15.25 C-3 18 -3 18 -5.5625 21 C-7.92946807 23.91319147 -8.67732377 25.34300269 -9 29 C3.03587731 28.72360198 10.66981089 23.42315997 19 15 C19.33 14.34 19.66 13.68 20 13 C20.66 13 21.32 13 22 13 C22.2475 12.38125 22.495 11.7625 22.75 11.125 C24.20628639 8.64931313 25.37812506 8.04874998 28 7 C28.495 7.99 28.495 7.99 29 9 C25.83618873 12.88696813 22.5949523 16.49722597 19 20 C18.360625 20.680625 17.72125 21.36125 17.0625 22.0625 C10.74193548 28 10.74193548 28 7 28 C7 28.66 7 29.32 7 30 C0.42727009 32.42875406 -5.0785528 33.70277061 -12 32 C-13 31 -13 31 -13.30859375 28.31640625 C-12.92287864 24.17118946 -11.51099174 22.27244043 -9.0625 18.9375 C-5.54062077 14.11122105 -4 10.96570632 -4 5 C-3.01 4.34 -2.02 3.68 -1 3 C-0.67 2.01 -0.34 1.02 0 0 Z " fill="#1659EE" transform="translate(264,199)"/>
<path d="M0 0 C2.97 0.495 2.97 0.495 6 1 C6 0.67 6 0.34 6 0 C8.29141286 -0.05384521 10.58318188 -0.09272087 12.875 -0.125 C14.78925781 -0.15980469 14.78925781 -0.15980469 16.7421875 -0.1953125 C20 0 20 0 22 2 C22 2.66 22 3.32 22 4 C23.32 4 24.64 4 26 4 C28.25 6.5 28.25 6.5 30 9 C28.35 9 26.7 9 25 9 C25 8.34 25 7.68 25 7 C24.030625 6.731875 23.06125 6.46375 22.0625 6.1875 C21.051875 5.795625 20.04125 5.40375 19 5 C18.67 4.01 18.34 3.02 18 2 C17.34 3.98 16.68 5.96 16 8 C18.64 8 21.28 8 24 8 C22 10 22 10 20 11 C20.66 11.66 21.32 12.32 22 13 C24.10820797 12.6814823 24.10820797 12.6814823 26 12 C26 11.34 26 10.68 26 10 C26.66 10 27.32 10 28 10 C28.625 11.8125 28.625 11.8125 29 14 C28.01 15.485 28.01 15.485 27 17 C26.34 17 25.68 17 25 17 C25 17.66 25 18.32 25 19 C24.01 19 23.02 19 22 19 C21.67 18.34 21.34 17.68 21 17 C20.01 16.34 19.02 15.68 18 15 C16.96352976 13.69481525 15.95577057 12.36538653 15 11 C14.67 11.99 14.34 12.98 14 14 C13.79375 13.2575 13.5875 12.515 13.375 11.75 C11.5325803 8.06516059 9.6931055 6.77553149 6 5 C2.67221575 5.60738122 2.67221575 5.60738122 0 7 C0 6.34 0 5.68 0 5 C-0.66 5 -1.32 5 -2 5 C-2 4.01 -2 3.02 -2 2 C-1.34 2 -0.68 2 0 2 C0 1.34 0 0.68 0 0 Z " fill="#586F9E" transform="translate(219,359)"/>
<path d="M0 0 C0.99 1.98 0.99 1.98 2 4 C2.33 3.01 2.66 2.02 3 1 C3.495 1.495 3.495 1.495 4 2 C3.71269945 4.33944736 3.38063221 6.6739143 3 9 C5.31 9.33 7.62 9.66 10 10 C10 10.33 10 10.66 10 11 C-6.28054204 11.97500782 -22.50618263 12.12136757 -38.8125 12.0625 C-41.27018137 12.05746876 -43.72786375 12.05290876 -46.18554688 12.04882812 C-52.12372052 12.0379655 -58.0618553 12.02135936 -64 12 C-64 11.67 -64 11.34 -64 11 C-41.23 10.505 -41.23 10.505 -18 10 C-17.67 9.01 -17.34 8.02 -17 7 C-18.32 6.67 -19.64 6.34 -21 6 C-21 5.34 -21 4.68 -21 4 C-18.72443493 4.50568113 -16.84617721 5.0769114 -14.75 6.125 C-10.86472961 7.3612224 -8.00255404 6.67839899 -4 6 C-3.896875 5.38125 -3.79375 4.7625 -3.6875 4.125 C-3 2 -3 2 0 0 Z M8 7 C8.33 7.66 8.66 8.32 9 9 C8.34 8.67 7.68 8.34 7 8 C7.33 7.67 7.66 7.34 8 7 Z " fill="#2E4C7D" transform="translate(248,372)"/>
<path d="M0 0 C5.11476819 -0.63934602 8.67254378 1.59466453 13 4 C13 5.32 13 6.64 13 8 C5.95314041 12.69790639 -2.61102086 14.25421149 -11 14 C-11 13.01 -11 12.02 -11 11 C-10.01 11 -9.02 11 -8 11 C-8.33 10.4225 -8.66 9.845 -9 9.25 C-10 7 -10 7 -10 3 C-9.01 3 -8.02 3 -7 3 C-6.67 3.66 -6.34 4.32 -6 5 C-5.34 5 -4.68 5 -4 5 C-3.67 6.32 -3.34 7.64 -3 9 C-2.67 8.34 -2.34 7.68 -2 7 C-0.33499557 6.65846063 1.33178677 6.32550502 3 6 C3.66 5.34 4.32 4.68 5 4 C2.69 3.67 0.38 3.34 -2 3 C-1.34 2.67 -0.68 2.34 0 2 C0 1.34 0 0.68 0 0 Z " fill="#464979" transform="translate(309,364)"/>
<path d="M0 0 C0.89203125 0.01804687 1.7840625 0.03609375 2.703125 0.0546875 C3.71632813 0.08949219 3.71632813 0.08949219 4.75 0.125 C4.75 1.115 4.75 2.105 4.75 3.125 C4.09 3.785 3.43 4.445 2.75 5.125 C3.74 5.785 4.73 6.445 5.75 7.125 C5.75 7.785 5.75 8.445 5.75 9.125 C-1.66767774 9.34753033 -8.8894378 8.48774805 -16.25 7.625 C-17.50167969 7.48191406 -18.75335938 7.33882813 -20.04296875 7.19140625 C-23.11246277 6.83993747 -26.18142157 6.4843601 -29.25 6.125 C-28.59 4.475 -27.93 2.825 -27.25 1.125 C-26.6725 1.640625 -26.095 2.15625 -25.5 2.6875 C-24.7575 3.161875 -24.015 3.63625 -23.25 4.125 C-22.6415625 3.9703125 -22.033125 3.815625 -21.40625 3.65625 C-18.7695558 3.00662969 -17.11855875 3.40786031 -14.5 4.0625 C-13.70078125 4.25714844 -12.9015625 4.45179688 -12.078125 4.65234375 C-11.47484375 4.80832031 -10.8715625 4.96429688 -10.25 5.125 C-9.92 4.135 -9.59 3.145 -9.25 2.125 C-6.17955679 0.03654538 -3.65087249 -0.09607559 0 0 Z " fill="#4160A3" transform="translate(132.25,372.875)"/>
<path d="M0 0 C2.0625 0.4375 2.0625 0.4375 4 1 C2.68 1.33 1.36 1.66 0 2 C0 2.99 0 3.98 0 5 C-1.32 5 -2.64 5 -4 5 C-3.67 7.31 -3.34 9.62 -3 12 C-0.03 11.34 2.94 10.68 6 10 C6.33 11.32 6.66 12.64 7 14 C-2.16191918 13.43708547 -11.01728306 11.79203512 -20 10 C-20 8.35 -20 6.7 -20 5 C-19.14450562 4.82609741 -19.14450562 4.82609741 -18.27172852 4.64868164 C-15.70116824 4.12386875 -13.13183782 3.59326385 -10.5625 3.0625 C-9.66466797 2.88009766 -8.76683594 2.69769531 -7.84179688 2.50976562 C-6.98779297 2.33251953 -6.13378906 2.15527344 -5.25390625 1.97265625 C-4.46314697 1.81031494 -3.6723877 1.64797363 -2.85766602 1.48071289 C-0.99795332 1.16709107 -0.99795332 1.16709107 0 0 Z " fill="#4167BA" transform="translate(96,364)"/>
<path d="M0 0 C3.91652632 -0.08714316 7.83280311 -0.14043985 11.75 -0.1875 C12.86117187 -0.21263672 13.97234375 -0.23777344 15.1171875 -0.26367188 C16.18710938 -0.27333984 17.25703125 -0.28300781 18.359375 -0.29296875 C19.34389648 -0.3086792 20.32841797 -0.32438965 21.34277344 -0.34057617 C24.39282409 0.05034818 25.74113723 0.96842944 28 3 C26.906875 2.814375 25.81375 2.62875 24.6875 2.4375 C21.06375867 1.7421932 21.06375867 1.7421932 18 3 C18 3.99 18 4.98 18 6 C18.66 6 19.32 6 20 6 C20 6.99 20 7.98 20 9 C20.99 9.33 21.98 9.66 23 10 C23.99 10.33 24.98 10.66 26 11 C26.99 11 27.98 11 29 11 C29 11.66 29 12.32 29 13 C29.66 13.33 30.32 13.66 31 14 C30.34 14 29.68 14 29 14 C29 14.99 29 15.98 29 17 C28.34 16.67 27.68 16.34 27 16 C27.33 15.34 27.66 14.68 28 14 C26.35 14 24.7 14 23 14 C22.67 14.66 22.34 15.32 22 16 C18.125 15.125 18.125 15.125 17 14 C16.34 14.66 15.68 15.32 15 16 C14.34 14.02 13.68 12.04 13 10 C13.99 9.67 14.98 9.34 16 9 C16 8.34 16 7.68 16 7 C15.01 6.67 14.02 6.34 13 6 C13 5.34 13 4.68 13 4 C9.88082461 1.92054974 9.41258857 1.79214424 5.9375 2 C4.638125 2 3.33875 2 2 2 C1.34 1.34 0.68 0.68 0 0 Z " fill="#52729D" transform="translate(199,358)"/>
<path d="M0 0 C1.98 0 3.96 0 6 0 C5.01 0.66 4.02 1.32 3 2 C3.66 2.33 4.32 2.66 5 3 C5 3.66 5 4.32 5 5 C5.66 5.33 6.32 5.66 7 6 C7 7.65 7 9.3 7 11 C6.34 11 5.68 11 5 11 C4.67 13.31 4.34 15.62 4 18 C4.66 18.33 5.32 18.66 6 19 C-0.03554548 19.69260358 -5.92406438 20.11251733 -12 20 C-11.34 19.67 -10.68 19.34 -10 19 C-9.34786708 16.97536745 -9.34786708 16.97536745 -9 15 C-8.34 15 -7.68 15 -7 15 C-6.67 14.34 -6.34 13.68 -6 13 C-5.34 13.33 -4.68 13.66 -4 14 C-3.67 13.34 -3.34 12.68 -3 12 C-2.01 12 -1.02 12 0 12 C0 11.34 0 10.68 0 10 C-0.66 10 -1.32 10 -2 10 C-2 9.34 -2 8.68 -2 8 C-0.68 8.33 0.64 8.66 2 9 C2.15288097 6.93281598 2.15288097 6.93281598 1 5.0625 C0 3 0 3 0 0 Z " fill="#4D6488" transform="translate(282,361)"/>
<path d="M0 0 C0.91330078 0.01353516 1.82660156 0.02707031 2.76757812 0.04101562 C4.99153259 0.07594685 7.21417952 0.12498414 9.4375 0.1875 C9.4375 0.5175 9.4375 0.8475 9.4375 1.1875 C8.33792969 1.22488281 7.23835938 1.26226562 6.10546875 1.30078125 C-6.56251401 1.599622 -6.56251401 1.599622 -18.5625 5.1875 C-20.34621914 7.19054055 -20.34621914 7.19054055 -21.5625 9.1875 C-19.25173596 11.79739207 -17.05361822 12.99277512 -13.875 14.375 C-6.39185411 18.00186779 -0.54289015 23.89011806 3.4375 31.1875 C3.4375 32.5075 3.4375 33.8275 3.4375 35.1875 C2.7775 35.1875 2.1175 35.1875 1.4375 35.1875 C0.52516058 33.70083544 -0.31649979 32.17059443 -1.125 30.625 C-5.96056263 22.32375568 -13.2901959 18.09103322 -21.59375 13.64453125 C-23.5625 12.1875 -23.5625 12.1875 -24.4609375 10.171875 C-24.5625 8.1875 -24.5625 8.1875 -22.6875 5.625 C-15.81343495 0.26322926 -8.46971317 -0.24234689 0 0 Z " fill="#2A81F7" transform="translate(149.5625,92.8125)"/>
<path d="M0 0 C2 2 2 2 2 5 C4.31 5.33 6.62 5.66 9 6 C8.67 6.99 8.34 7.98 8 9 C14.27 9 20.54 9 27 9 C27 9.33 27 9.66 27 10 C12.50794151 10.24187541 -1.62301438 9.89884716 -16 8 C-16 7.67 -16 7.34 -16 7 C-15.05125 6.731875 -14.1025 6.46375 -13.125 6.1875 C-9.74732727 5.25013412 -9.74732727 5.25013412 -8 2 C-5.4375 1.75 -5.4375 1.75 -3 2 C-2.67 2.33 -2.34 2.66 -2 3 C-1.34 2.01 -0.68 1.02 0 0 Z " fill="#364D81" transform="translate(156,374)"/>
<path d="M0 0 C0.28875 0.94875 0.5775 1.8975 0.875 2.875 C1.76825109 6.05211578 1.76825109 6.05211578 4 8 C3.34 8.66 2.68 9.32 2 10 C0.68 9.34 -0.64 8.68 -2 8 C-2 8.66 -2 9.32 -2 10 C-1.34 10 -0.68 10 0 10 C0.33 10.99 0.66 11.98 1 13 C-0.32 12.67 -1.64 12.34 -3 12 C-3.33 12.99 -3.66 13.98 -4 15 C-6.78388975 13.29374499 -7.85384206 12.52373261 -8.75 9.3125 C-8.87375 8.1678125 -8.87375 8.1678125 -9 7 C-7.35 7 -5.7 7 -4 7 C-4.33 5.68 -4.66 4.36 -5 3 C-7.475 4.485 -7.475 4.485 -10 6 C-9.67 4.68 -9.34 3.36 -9 2 C-11.86724686 2.57344937 -12.8614515 2.8614515 -15 5 C-15.66 4.67 -16.32 4.34 -17 4 C-17 3.34 -17 2.68 -17 2 C-11.35600642 -0.44064587 -6.02248522 -0.19289099 0 0 Z " fill="#596D98" transform="translate(282,361)"/>
<path d="M0 0 C0.99 0.33 1.98 0.66 3 1 C1.77206376 2.0847278 0.5425838 3.16770815 -0.6875 4.25 C-1.37199219 4.85328125 -2.05648437 5.4565625 -2.76171875 6.078125 C-5 8 -5 8 -7.54296875 9.87109375 C-16.53519547 17.66245076 -21.62079775 32.50664795 -23 44 C-25.53332833 39.52942059 -25.28548 35.87238389 -24 31 C-19.14446183 18.97342136 -11.74495444 6.4168686 0 0 Z " fill="#1654E3" transform="translate(95,317)"/>
<path d="M0 0 C0.84388275 -0.00095673 1.6877655 -0.00191345 2.55722046 -0.00289917 C4.33046545 -0.0035761 6.10371298 -0.00175599 7.87695312 0.00244141 C10.58469203 0.00781003 13.2922661 0.00247297 16 -0.00390625 C17.72916703 -0.00324564 19.45833396 -0.00196484 21.1875 0 C22.39546738 -0.00303635 22.39546738 -0.00303635 23.62783813 -0.00613403 C27.53970625 0.01013704 31.14064009 0.17033077 34.9609375 1.1328125 C32.52261108 3.57113892 31.90065639 3.3849853 28.55883789 3.39160156 C27.19215721 3.40105804 27.19215721 3.40105804 25.79786682 3.41070557 C24.81140671 3.4066571 23.82494659 3.40260864 22.80859375 3.3984375 C21.7975206 3.40035095 20.78644745 3.4022644 19.74473572 3.40423584 C17.60366569 3.40559853 15.46258742 3.40189625 13.3215332 3.39355469 C10.04033862 3.38286755 6.75969296 3.39344156 3.47851562 3.40625 C1.40104045 3.4049282 -0.67643437 3.40236539 -2.75390625 3.3984375 C-3.73834213 3.40248596 -4.72277802 3.40653442 -5.73704529 3.41070557 C-6.6513179 3.40440125 -7.56559052 3.39809692 -8.50756836 3.39160156 C-9.31205917 3.39001038 -10.11654999 3.38841919 -10.94541931 3.38677979 C-13.0390625 3.1328125 -13.0390625 3.1328125 -16.0390625 1.1328125 C-10.6480353 0.22967419 -5.46064015 -0.01379521 0 0 Z " fill="#1966F7" transform="translate(298.0390625,190.8671875)"/>
<path d="M0 0 C6.81850205 0.47024152 12.8634919 2.05504382 19.40234375 4.01171875 C24.54278875 5.42380625 29.72543186 6.26581103 35 7 C34.505 3.535 34.505 3.535 34 0 C34.99 0.33 35.98 0.66 37 1 C37.3626943 6.44041451 37.3626943 6.44041451 35.90625 8.6875 C33.06322767 10.64499078 30.71512984 10.28856821 27.3125 10.1875 C25.54326172 10.14689453 25.54326172 10.14689453 23.73828125 10.10546875 C22.83464844 10.07066406 21.93101562 10.03585938 21 10 C21.66 9.67 22.32 9.34 23 9 C23 8.34 23 7.68 23 7 C15.37282967 5.38159365 7.71271047 4.13635546 0 3 C0 2.01 0 1.02 0 0 Z " fill="#1F6CF2" transform="translate(347,195)"/>
<path d="M0 0 C0.33 0 0.66 0 1 0 C1.03440186 0.88445801 1.06880371 1.76891602 1.10424805 2.68017578 C1.82563689 19.92863883 2.84774559 36.44996987 7.57275391 53.16357422 C8 55 8 55 8 58 C7.34 58 6.68 58 6 58 C5.18216722 54.64711088 4.37170786 51.29248023 3.5625 47.9375 C3.21735352 46.52307617 3.21735352 46.52307617 2.86523438 45.08007812 C2.64287109 44.15517578 2.42050781 43.23027344 2.19140625 42.27734375 C1.98717041 41.43421631 1.78293457 40.59108887 1.57250977 39.72241211 C0.37551251 34.03042216 -0.12260643 28.56729774 -0.09765625 22.75390625 C-0.0962413 22.09792953 -0.09482635 21.44195282 -0.09336853 20.76609802 C-0.08783031 18.69818298 -0.07529002 16.63038158 -0.0625 14.5625 C-0.05747699 13.14909012 -0.0529155 11.73567852 -0.04882812 10.32226562 C-0.03788126 6.88147432 -0.02066038 3.44074828 0 0 Z " fill="#1158E6" transform="translate(92,255)"/>
<path d="M0 0 C-1.02054027 2.80499373 -1.76450512 3.85909232 -4.36328125 5.4140625 C-11.57350811 8.374553 -19.10533416 11.09087385 -27 11 C-28.87109375 9.53125 -28.87109375 9.53125 -30 8 C-25.3267914 6.50855045 -21.00823435 5.69152642 -16.11328125 5.34375 C-13.94477639 5.10160627 -13.94477639 5.10160627 -11.98046875 3.96875 C-10 3 -10 3 -6 3 C-6 2.34 -6 1.68 -6 1 C-3 0 -3 0 0 0 Z " fill="#1254E6" transform="translate(227,238)"/>
<path d="M0 0 C-0.33 0.99 -0.66 1.98 -1 3 C-2.70703125 3.765625 -2.70703125 3.765625 -4.8125 4.25 C-5.49957031 4.42015625 -6.18664062 4.5903125 -6.89453125 4.765625 C-9.19499821 5.02170666 -10.80629727 4.69015367 -13 4 C-13.33 5.32 -13.66 6.64 -14 8 C-14.99 8 -15.98 8 -17 8 C-18.33981486 8.3062434 -19.67511887 8.63451555 -21 9 C-21.33 8.34 -21.66 7.68 -22 7 C-24.01669827 5.86649466 -24.01669827 5.86649466 -26 5 C-20.4776986 -0.5223014 -7.42760204 -0.39092642 0 0 Z " fill="#456DC2" transform="translate(124,361)"/>
<path d="M0 0 C0 0.66 0 1.32 0 2 C-0.78246094 2.19335938 -1.56492187 2.38671875 -2.37109375 2.5859375 C-3.38300781 2.84632813 -4.39492188 3.10671875 -5.4375 3.375 C-6.95150391 3.75785156 -6.95150391 3.75785156 -8.49609375 4.1484375 C-11.15570324 4.72573954 -11.15570324 4.72573954 -12 7 C-13.65 6.67 -15.3 6.34 -17 6 C-17.226875 6.639375 -17.45375 7.27875 -17.6875 7.9375 C-19 10 -19 10 -21.625 10.75 C-22.40875 10.8325 -23.1925 10.915 -24 11 C-24.33 10.34 -24.66 9.68 -25 9 C-23.5 6.0625 -23.5 6.0625 -21 3 C-18.23513429 2.16104266 -15.92560787 2.09752026 -13 2 C-12.67 2.66 -12.34 3.32 -12 4 C-11.34 4 -10.68 4 -10 4 C-10 3.34 -10 2.68 -10 2 C-10.66 1.67 -11.32 1.34 -12 1 C-8.0186217 -0.3271261 -4.14954773 -0.06915913 0 0 Z " fill="#156FF9" transform="translate(281,193)"/>
<path d="M0 0 C0.88365234 0.00451172 1.76730469 0.00902344 2.67773438 0.01367188 C4.84768559 0.02540134 7.01760172 0.04333505 9.1875 0.0625 C9.1875 0.7225 9.1875 1.3825 9.1875 2.0625 C10.1775 2.3925 11.1675 2.7225 12.1875 3.0625 C7.8975 3.7225 3.6075 4.3825 -0.8125 5.0625 C-1.1425 4.4025 -1.4725 3.7425 -1.8125 3.0625 C-1.4825 2.4025 -1.1525 1.7425 -0.8125 1.0625 C-1.36711914 1.18890869 -1.92173828 1.31531738 -2.49316406 1.44555664 C-5.01427895 2.01467908 -7.53824955 2.56995799 -10.0625 3.125 C-10.93519531 3.32416016 -11.80789063 3.52332031 -12.70703125 3.72851562 C-13.97353516 4.00405273 -13.97353516 4.00405273 -15.265625 4.28515625 C-16.04067383 4.45797119 -16.81572266 4.63078613 -17.61425781 4.80883789 C-19.96425291 5.08001125 -21.57447268 4.77804459 -23.8125 4.0625 C-22.41800891 3.579441 -21.02183293 3.10124483 -19.625 2.625 C-18.84769531 2.35816406 -18.07039063 2.09132812 -17.26953125 1.81640625 C-11.43763482 0.02696903 -6.0574582 -0.05872256 0 0 Z " fill="#2474F3" transform="translate(292.8125,201.9375)"/>
<path d="M0 0 C0.99 0 1.98 0 3 0 C3.33 0.66 3.66 1.32 4 2 C4.66 2 5.32 2 6 2 C6.33 3.32 6.66 4.64 7 6 C7.33 5.34 7.66 4.68 8 4 C8.66 4 9.32 4 10 4 C10 5.32 10 6.64 10 8 C10.99 8.33 11.98 8.66 13 9 C8.126739 10.5912689 4.19209404 11.21192221 -1 11 C-1 10.01 -1 9.02 -1 8 C-0.01 8 0.98 8 2 8 C1.67 7.4225 1.34 6.845 1 6.25 C0 4 0 4 0 0 Z " fill="#444972" transform="translate(299,367)"/>
<path d="M0 0 C0.66 0.33 1.32 0.66 2 1 C1.67 3.31 1.34 5.62 1 8 C3.31 8.33 5.62 8.66 8 9 C8 9.33 8 9.66 8 10 C4.87598221 10.22537111 1.75088667 10.42738648 -1.375 10.625 C-2.26445312 10.68945312 -3.15390625 10.75390625 -4.0703125 10.8203125 C-4.92109375 10.871875 -5.771875 10.9234375 -6.6484375 10.9765625 C-7.82672119 11.05511475 -7.82672119 11.05511475 -9.02880859 11.13525391 C-11 11 -11 11 -13 9 C-12.01 9 -11.02 9 -10 9 C-10 8.34 -10 7.68 -10 7 C-6.7 5.68 -3.4 4.36 0 3 C0 2.01 0 1.02 0 0 Z M6 6 C6.33 6.66 6.66 7.32 7 8 C6.34 7.67 5.68 7.34 5 7 C5.33 6.67 5.66 6.34 6 6 Z " fill="#3F587F" transform="translate(250,373)"/>
<path d="M0 0 C3.91652632 -0.08714316 7.83280311 -0.14043985 11.75 -0.1875 C12.86117187 -0.21263672 13.97234375 -0.23777344 15.1171875 -0.26367188 C16.18710938 -0.27333984 17.25703125 -0.28300781 18.359375 -0.29296875 C19.34389648 -0.3086792 20.32841797 -0.32438965 21.34277344 -0.34057617 C24.39282409 0.05034818 25.74113723 0.96842944 28 3 C26.906875 2.814375 25.81375 2.62875 24.6875 2.4375 C21.06375867 1.7421932 21.06375867 1.7421932 18 3 C18 4.32 18 5.64 18 7 C15.525 6.505 15.525 6.505 13 6 C13 5.34 13 4.68 13 4 C9.88082461 1.92054974 9.41258857 1.79214424 5.9375 2 C4.638125 2 3.33875 2 2 2 C1.34 1.34 0.68 0.68 0 0 Z " fill="#3F63A3" transform="translate(199,358)"/>
<path d="M0 0 C0.33 0.66 0.66 1.32 1 2 C1.99 1.67 2.98 1.34 4 1 C4 1.66 4 2.32 4 3 C3.34 3 2.68 3 2 3 C2 3.66 2 4.32 2 5 C1.01 5.33 0.02 5.66 -1 6 C-0.01 6.66 0.98 7.32 2 8 C0.68 8 -0.64 8 -2 8 C-2 8.66 -2 9.32 -2 10 C-1.01 10.33 -0.02 10.66 1 11 C0.34 11.66 -0.32 12.32 -1 13 C-1.268125 13.78375 -1.53625 14.5675 -1.8125 15.375 C-3.2726384 18.60267436 -5.14604451 19.97218952 -8 22 C-9 19 -9 19 -7.96875 16.87890625 C-6.99076077 15.33649238 -6.01159637 13.79482301 -5.03125 12.25390625 C-3.77830699 10.05828117 -3.77830699 10.05828117 -4.34375 7.71484375 C-4.5603125 7.14894531 -4.776875 6.58304688 -5 6 C-4.360625 5.566875 -3.72125 5.13375 -3.0625 4.6875 C-0.73253997 3.08760823 -0.73253997 3.08760823 0 0 Z " fill="#1A68EF" transform="translate(264,199)"/>
<path d="M0 0 C1.67542976 0.28604898 3.34385343 0.61781233 5 1 C5 1.66 5 2.32 5 3 C6.65 3.33 8.3 3.66 10 4 C9.690625 4.5775 9.38125 5.155 9.0625 5.75 C7.9327131 7.9338937 7.9327131 7.9338937 7.5 10.1875 C7.335 10.785625 7.17 11.38375 7 12 C6.01 12.495 6.01 12.495 5 13 C4.67 13.99 4.34 14.98 4 16 C4.99 16.33 5.98 16.66 7 17 C5.02 17 3.04 17 1 17 C1.33 14.69 1.66 12.38 2 10 C2.66 10 3.32 10 4 10 C3.7452486 8.68428397 3.47065859 7.37239624 3.1875 6.0625 C3.03667969 5.33160156 2.88585937 4.60070312 2.73046875 3.84765625 C2.48941406 3.23792969 2.24835938 2.62820313 2 2 C1.01 1.67 0.02 1.34 -1 1 C-0.67 0.67 -0.34 0.34 0 0 Z " fill="#52658B" transform="translate(285,362)"/>
<path d="M0 0 C0.66 0.66 1.32 1.32 2 2 C-3.61 7.61 -9.22 13.22 -15 19 C-15.99 18.34 -16.98 17.68 -18 17 C-15.75417636 14.72500399 -13.50262096 12.45576416 -11.25 10.1875 C-10.61578125 9.54490234 -9.9815625 8.90230469 -9.328125 8.24023438 C-8.4 7.30727539 -8.4 7.30727539 -7.453125 6.35546875 C-6.88754883 5.78465576 -6.32197266 5.21384277 -5.73925781 4.62573242 C-3.92139169 2.92652264 -2.01504683 1.45724172 0 0 Z " fill="#3496FB" transform="translate(147,146)"/>
<path d="M0 0 C5.28 0 10.56 0 16 0 C16 0.66 16 1.32 16 2 C15.01 2 14.02 2 13 2 C13 2.66 13 3.32 13 4 C14.65 4.33 16.3 4.66 18 5 C17.67 5.66 17.34 6.32 17 7 C15.35 6.67 13.7 6.34 12 6 C12 4.68 12 3.36 12 2 C10.68 2.33 9.36 2.66 8 3 C8 3.99 8 4.98 8 6 C7.34 6 6.68 6 6 6 C6 5.34 6 4.68 6 4 C4.35 4.33 2.7 4.66 1 5 C0.67 3.35 0.34 1.7 0 0 Z " fill="#506187" transform="translate(239,359)"/>
<path d="M0 0 C0.66 0.33 1.32 0.66 2 1 C2 1.66 2 2.32 2 3 C2.66 3 3.32 3 4 3 C4 3.66 4 4.32 4 5 C4.99 5.33 5.98 5.66 7 6 C3.04476345 8.75668002 -0.22423661 9.5317879 -5 10 C-5 8.02 -5 6.04 -5 4 C-3.35 3.34 -1.7 2.68 0 2 C0 1.34 0 0.68 0 0 Z " fill="#506AAB" transform="translate(143,372)"/>
<path d="M0 0 C0.66 0 1.32 0 2 0 C2.33 3.63 2.66 7.26 3 11 C4.98 11 6.96 11 9 11 C8 13 8 13 6 16 C3 15 3 15 -1 13 C-0.67 8.71 -0.34 4.42 0 0 Z " fill="#1742D4" transform="translate(69,357)"/>
<path d="M0 0 C0.88945312 0.00322266 1.77890625 0.00644531 2.6953125 0.00976562 C4.07589844 0.02233398 4.07589844 0.02233398 5.484375 0.03515625 C6.42023438 0.03966797 7.35609375 0.04417969 8.3203125 0.04882812 C10.62506541 0.06058707 12.92968727 0.07702199 15.234375 0.09765625 C15.234375 0.42765625 15.234375 0.75765625 15.234375 1.09765625 C14.13480469 1.13503906 13.03523438 1.17242187 11.90234375 1.2109375 C-0.76563901 1.50977825 -0.76563901 1.50977825 -12.765625 5.09765625 C-13.79388707 6.40931737 -14.79663866 7.7416167 -15.765625 9.09765625 C-16.755625 9.42765625 -17.745625 9.75765625 -18.765625 10.09765625 C-18.13644207 7.26633304 -17.44141602 5.5501683 -14.9921875 3.91015625 C-9.9630135 1.36752553 -5.67020635 -0.03634748 0 0 Z " fill="#2C86F2" transform="translate(143.765625,92.90234375)"/>
<path d="M0 0 C0.33 0.99 0.66 1.98 1 3 C5.29 3.66 9.58 4.32 14 5 C14 5.33 14 5.66 14 6 C12.02 6 10.04 6 8 6 C8 6.99 8 7.98 8 9 C9.65 9.33 11.3 9.66 13 10 C13 10.33 13 10.66 13 11 C11.02 11 9.04 11 7 11 C7 10.34 7 9.68 7 9 C4.69 9.33 2.38 9.66 0 10 C0.66 9.67 1.32 9.34 2 9 C2 8.34 2 7.68 2 7 C2.66 6.67 3.32 6.34 4 6 C2.68 5.67 1.36 5.34 0 5 C-0.5625 3.0625 -0.5625 3.0625 -1 1 C-0.67 0.67 -0.34 0.34 0 0 Z " fill="#5F6E9E" transform="translate(250,362)"/>
<path d="M0 0 C0.99 0.33 1.98 0.66 3 1 C3.3626943 6.44041451 3.3626943 6.44041451 1.90625 8.6875 C-0.93677233 10.64499078 -3.28487016 10.28856821 -6.6875 10.1875 C-8.45673828 10.14689453 -8.45673828 10.14689453 -10.26171875 10.10546875 C-11.16535156 10.07066406 -12.06898438 10.03585938 -13 10 C-12.01 9.67 -11.02 9.34 -10 9 C-10 8.01 -10 7.02 -10 6 C-6.37 6.33 -2.74 6.66 1 7 C0.67 4.69 0.34 2.38 0 0 Z " fill="#236AE3" transform="translate(381,195)"/>
<path d="M0 0 C0.66 0.33 1.32 0.66 2 1 C1.67 1.99 1.34 2.98 1 4 C1.99 4 2.98 4 4 4 C4 3.01 4 2.02 4 1 C5.32 1.33 6.64 1.66 8 2 C7.34 2 6.68 2 6 2 C6 2.66 6 3.32 6 4 C7.65 3.67 9.3 3.34 11 3 C10.67 4.32 10.34 5.64 10 7 C6.37 7 2.74 7 -1 7 C-0.67 4.69 -0.34 2.38 0 0 Z " fill="#49638D" transform="translate(259,375)"/>
<path d="M0 0 C5.11476819 -0.63934602 8.67254378 1.59466453 13 4 C13 5.32 13 6.64 13 8 C11.68 8 10.36 8 9 8 C8.34 6.35 7.68 4.7 7 3 C6.443125 3.185625 5.88625 3.37125 5.3125 3.5625 C2.600867 4.07551165 0.65628961 3.6640724 -2 3 C-1.34 2.67 -0.68 2.34 0 2 C0 1.34 0 0.68 0 0 Z " fill="#292E7B" transform="translate(309,364)"/>
<path d="M0 0 C-5.28 0.66 -10.56 1.32 -16 2 C-16 1.34 -16 0.68 -16 0 C-18.31 0 -20.62 0 -23 0 C-23 -0.33 -23 -0.66 -23 -1 C-6.10986415 -4.07324276 -6.10986415 -4.07324276 0 0 Z " fill="#1755E4" transform="translate(141,342)"/>
<path d="M0 0 C-1.32 0.33 -2.64 0.66 -4 1 C-3.67 1.99 -3.34 2.98 -3 4 C-5 6 -5 6 -8.625 6.125 C-9.73875 6.08375 -10.8525 6.0425 -12 6 C-12 4.35 -12 2.7 -12 1 C-7.93631321 0.22596442 -4.13574827 -0.0984702 0 0 Z " fill="#3A68C3" transform="translate(88,368)"/>
<path d="M0 0 C-0.33 0.99 -0.66 1.98 -1 3 C-5.79166764 4.59722255 -9.08188364 5.42366526 -14 4 C-15.99897128 3.66055205 -17.99875639 3.32578384 -20 3 C-20 2.67 -20 2.34 -20 2 C-13.2168636 0.57997892 -6.93302093 -0.22731216 0 0 Z " fill="#345DB5" transform="translate(124,361)"/>
<path d="M0 0 C3.63 0 7.26 0 11 0 C11.33 1.98 11.66 3.96 12 6 C11.13375 5.690625 10.2675 5.38125 9.375 5.0625 C6.23849262 4.07508101 3.24932587 3.46418941 0 3 C0 2.01 0 1.02 0 0 Z " fill="#446CBC" transform="translate(141,359)"/>
<path d="M0 0 C0.66 0.33 1.32 0.66 2 1 C2.93493027 6.01462597 3.13112344 9.97278473 2 15 C0.68 15 -0.64 15 -2 15 C-1.85816304 13.24967156 -1.71136571 11.49974466 -1.5625 9.75 C-1.48128906 8.77546875 -1.40007812 7.8009375 -1.31640625 6.796875 C-1.04925416 4.43538247 -0.64628032 2.28098935 0 0 Z " fill="#2769EB" transform="translate(122,285)"/>
<path d="M0 0 C1.49080078 0.29197266 1.49080078 0.29197266 3.01171875 0.58984375 C4.15060547 0.82380859 4.15060547 0.82380859 5.3125 1.0625 C5.3125 1.7225 5.3125 2.3825 5.3125 3.0625 C1.80378216 4.97634609 0.49882214 5.10526246 -3.5 4.1875 C-4.551875 3.81625 -5.60375 3.445 -6.6875 3.0625 C-6.6875 2.4025 -6.6875 1.7425 -6.6875 1.0625 C-7.3475 0.7325 -8.0075 0.4025 -8.6875 0.0625 C-5.21237282 -1.09587573 -3.55079714 -0.71015943 0 0 Z " fill="#4E5F83" transform="translate(296.6875,361.9375)"/>
<path d="M0 0 C0.66 0 1.32 0 2 0 C2 0.66 2 1.32 2 2 C2.99 2.33 3.98 2.66 5 3 C5 3.66 5 4.32 5 5 C5.66 5 6.32 5 7 5 C7 5.66 7 6.32 7 7 C6.01 7.495 6.01 7.495 5 8 C4.67 8.99 4.34 9.98 4 11 C3.01 11.33 2.02 11.66 1 12 C0.28025848 7.86148627 0 4.19986468 0 0 Z " fill="#496E86" transform="translate(268,369)"/>
<path d="M0 0 C1.8871875 0.0309375 1.8871875 0.0309375 3.8125 0.0625 C3.8125 2.0425 3.8125 4.0225 3.8125 6.0625 C2.8225 5.4025 1.8325 4.7425 0.8125 4.0625 C-0.1775 4.3925 -1.1675 4.7225 -2.1875 5.0625 C-4.875 4.125 -4.875 4.125 -7.1875 3.0625 C-7.1875 2.4025 -7.1875 1.7425 -7.1875 1.0625 C-4.43671116 0.14557039 -2.82801087 -0.04636083 0 0 Z " fill="#58719D" transform="translate(259.1875,359.9375)"/>
<path d="M0 0 C0.33 0 0.66 0 1 0 C0.73526751 6.35357984 -1.53924091 10.45046958 -6 15 C-6.99 15.33 -7.98 15.66 -9 16 C-8.41941783 12.08107037 -6.46083989 10.02331757 -4 7 C-2.58847607 4.7032831 -1.2980751 2.36435108 0 0 Z " fill="#1C66EE" transform="translate(206,230)"/>
<path d="M0 0 C7.52040229 3.37121482 13.65240467 6.63560837 19 13 C18.01 13.33 17.02 13.66 16 14 C15.401875 13.319375 14.80375 12.63875 14.1875 11.9375 C10.71462498 8.40405158 6.46092948 6.07117463 2.23046875 3.55078125 C1.49441406 3.03902344 0.75835937 2.52726563 0 2 C0 1.34 0 0.68 0 0 Z " fill="#2474F0" transform="translate(364,181)"/>
<path d="M0 0 C3.36525621 0.46417327 5.40608501 1.86928411 8 4 C7.67 4.99 7.34 5.98 7 7 C3.52674819 8.1577506 0.63932552 8.06866652 -3 8 C-3 7.67 -3 7.34 -3 7 C-1.35 6.67 0.3 6.34 2 6 C2.22609337 3.87635519 2.22609337 3.87635519 0.5 2.375 C0.005 1.92125 -0.49 1.4675 -1 1 C-0.67 0.67 -0.34 0.34 0 0 Z " fill="#1D6FF9" transform="translate(319,163)"/>
<path d="M0 0 C1.03115279 3.26913624 0.9638984 5.86041348 0.5625 9.25 C0.46066406 10.14203125 0.35882813 11.0340625 0.25390625 11.953125 C0.17011719 12.62859375 0.08632812 13.3040625 0 14 C0.66 14 1.32 14 2 14 C1.67 14.99 1.34 15.98 1 17 C0.34 17 -0.32 17 -1 17 C-1 17.66 -1 18.32 -1 19 C-1.99 19 -2.98 19 -4 19 C-3.00318287 12.54189755 -1.98363508 6.23428168 0 0 Z " fill="#0F46E6" transform="translate(121,285)"/>
<path d="M0 0 C0.680625 -0.01417969 1.36125 -0.02835937 2.0625 -0.04296875 C5.15222594 0.32455913 6.86427889 2.05177889 9 4.1875 C5.26706662 5.13416116 2.51408135 5.15824447 -1.25 4.375 C-2.12140625 4.20355469 -2.9928125 4.03210938 -3.890625 3.85546875 C-4.58671875 3.63503906 -5.2828125 3.41460937 -6 3.1875 C-6.33 2.5275 -6.66 1.8675 -7 1.1875 C-4.35559361 0.3060312 -2.71939248 0.02575182 0 0 Z " fill="#3290FB" transform="translate(288,116.8125)"/>
<path d="M0 0 C0.5775 0.515625 1.155 1.03125 1.75 1.5625 C2.4925 2.036875 3.235 2.51125 4 3 C4.639375 2.835 5.27875 2.67 5.9375 2.5 C8 2 8 2 10.75 3.375 C11.4925 3.91125 12.235 4.4475 13 5 C13 5.33 13 5.66 13 6 C8.05 5.67 3.1 5.34 -2 5 C-1.34 3.35 -0.68 1.7 0 0 Z " fill="#31519D" transform="translate(105,374)"/>
<path d="M0 0 C3.3 0 6.6 0 10 0 C10 0.66 10 1.32 10 2 C12.97 1.34 15.94 0.68 19 0 C19.33 1.32 19.66 2.64 20 4 C13.15182898 3.51358785 6.66957927 2.64006048 0 1 C0 0.67 0 0.34 0 0 Z " fill="#294C9C" transform="translate(83,374)"/>
<path d="M0 0 C1 2 2 4 3 6 C0.94766315 8.2477975 -0.00667261 9.0022242 -3 10 C-5 7 -5 7 -4.8125 4.875 C-4.544375 4.25625 -4.27625 3.6375 -4 3 C-3.01 2.67 -2.02 2.34 -1 2 C-0.67 1.34 -0.34 0.68 0 0 Z " fill="#4C71BD" transform="translate(137,360)"/>
<path d="M0 0 C2.125 0.375 2.125 0.375 4 1 C3.67 1.66 3.34 2.32 3 3 C2.34 3 1.68 3 1 3 C1 3.99 1 4.98 1 6 C-0.8125 7.75 -0.8125 7.75 -3 9 C-3.99 8.67 -4.98 8.34 -6 8 C-2.25 2.25 -2.25 2.25 0 0 Z " fill="#0F45D5" transform="translate(81,359)"/>
<path d="M0 0 C1.51400391 0.01740234 1.51400391 0.01740234 3.05859375 0.03515625 C4.07050781 0.04417969 5.08242187 0.05320312 6.125 0.0625 C7.29869141 0.07990234 7.29869141 0.07990234 8.49609375 0.09765625 C8.82609375 0.75765625 9.15609375 1.41765625 9.49609375 2.09765625 C8.83609375 2.09765625 8.17609375 2.09765625 7.49609375 2.09765625 C7.49609375 2.75765625 7.49609375 3.41765625 7.49609375 4.09765625 C6.23796875 3.97390625 4.97984375 3.85015625 3.68359375 3.72265625 C2.62205078 3.61824219 2.62205078 3.61824219 1.5390625 3.51171875 C-0.50390625 3.09765625 -0.50390625 3.09765625 -3.50390625 1.09765625 C-2.50390625 0.09765625 -2.50390625 0.09765625 0 0 Z " fill="#0A42E0" transform="translate(138.50390625,337.90234375)"/>
<path d="M0 0 C1.98 0 3.96 0 6 0 C5.01 0.66 4.02 1.32 3 2 C3.66 2.33 4.32 2.66 5 3 C5 3.66 5 4.32 5 5 C5.66 5.33 6.32 5.66 7 6 C6.67 7.32 6.34 8.64 6 10 C5.67 9.01 5.34 8.02 5 7 C2.98491642 6.26676204 2.98491642 6.26676204 1 6 C0.67 4.02 0.34 2.04 0 0 Z " fill="#3D5977" transform="translate(282,361)"/>
<path d="M0 0 C1.98 0.99 1.98 0.99 4 2 C4 2.66 4 3.32 4 4 C5.32 4 6.64 4 8 4 C10.25 6.5 10.25 6.5 12 9 C10.35 9 8.7 9 7 9 C7 8.34 7 7.68 7 7 C5.02 6.34 3.04 5.68 1 5 C0.67 3.35 0.34 1.7 0 0 Z " fill="#5A74A4" transform="translate(237,359)"/>
<path d="M0 0 C2.27474277 3.41211416 2.56629644 5.6568529 3.125 9.6875 C3.29257813 10.86699219 3.46015625 12.04648437 3.6328125 13.26171875 C3.75398438 14.16535156 3.87515625 15.06898438 4 16 C3.34 16 2.68 16 2 16 C1.46530198 14.27507022 0.94780825 12.544802 0.4375 10.8125 C0.14746094 9.84957031 -0.14257812 8.88664062 -0.44140625 7.89453125 C-1.02461026 4.87247412 -0.81178385 2.94070045 0 0 Z " fill="#185EED" transform="translate(96,297)"/>
<path d="M0 0 C2.00720923 0.28674418 4.0085944 0.61866701 6 1 C6 1.66 6 2.32 6 3 C8.97 3.495 8.97 3.495 12 4 C12 4.33 12 4.66 12 5 C7.6292047 6.01646402 4.97712063 6.20951146 1 4 C0.34 3.01 -0.32 2.02 -1 1 C-0.67 0.67 -0.34 0.34 0 0 Z " fill="#5C73A1" transform="translate(229,374)"/>
<path d="M0 0 C1.65 0.33 3.3 0.66 5 1 C4.236875 1.7425 3.47375 2.485 2.6875 3.25 C0.5606298 5.4263323 -1.2559956 7.52167796 -3 10 C-3 9.34 -3 8.68 -3 8 C-3.66 7.67 -4.32 7.34 -5 7 C-3.35 4.69 -1.7 2.38 0 0 Z " fill="#135AF4" transform="translate(254,206)"/>
<path d="M0 0 C0.66 0.33 1.32 0.66 2 1 C-2.03523352 5.81123996 -6.04467233 10.13242719 -11 14 C-10.52794881 9.75153925 -8.11122478 7.73180712 -5 5 C-4.34 5 -3.68 5 -3 5 C-2.67 4.01 -2.34 3.02 -2 2 C-1.34 2 -0.68 2 0 2 C0 1.34 0 0.68 0 0 Z " fill="#2C93FD" transform="translate(146,158)"/>
<path d="M0 0 C0.33 0.66 0.66 1.32 1 2 C1.99 1.67 2.98 1.34 4 1 C4 1.66 4 2.32 4 3 C3.34 3 2.68 3 2 3 C2 3.66 2 4.32 2 5 C1.01 5.33 0.02 5.66 -1 6 C-0.01 6.66 0.98 7.32 2 8 C0.68 8 -0.64 8 -2 8 C-2 8.99 -2 9.98 -2 11 C-2.66 10.67 -3.32 10.34 -4 10 C-4.625 7.9375 -4.625 7.9375 -5 6 C-4.360625 5.566875 -3.72125 5.13375 -3.0625 4.6875 C-0.73253997 3.08760823 -0.73253997 3.08760823 0 0 Z " fill="#0051FF" transform="translate(264,199)"/>
<path d="M0 0 C2.64 0 5.28 0 8 0 C8.33 1.65 8.66 3.3 9 5 C7.68 5.33 6.36 5.66 5 6 C5 4.68 5 3.36 5 2 C3.35 2 1.7 2 0 2 C0 1.34 0 0.68 0 0 Z " fill="#4E628C" transform="translate(274,361)"/>
<path d="M0 0 C-0.33 0.66 -0.66 1.32 -1 2 C-3.32156597 2.40729228 -5.6568787 2.74438677 -8 3 C-8 4.65 -8 6.3 -8 8 C-9.32 8 -10.64 8 -12 8 C-9.57446809 2.4212766 -9.57446809 2.4212766 -7.125 0.625 C-4.66203741 -0.09940076 -2.55422575 -0.14190143 0 0 Z " fill="#1365F5" transform="translate(268,195)"/>
<path d="M0 0 C-2 2 -2 2 -5.6875 2.1875 C-9.52492934 2.09629967 -13.21644004 1.63059333 -17 1 C-17 0.67 -17 0.34 -17 0 C-11.06975197 -0.97040422 -5.93609666 -0.89316269 0 0 Z " fill="#1D6EF4" transform="translate(333,192)"/>
<path d="M0 0 C0 0.99 0 1.98 0 3 C-3.63 3 -7.26 3 -11 3 C-11 2.34 -11 1.68 -11 1 C-7.2297564 -1.56376565 -4.32597804 -0.83191885 0 0 Z " fill="#4A669B" transform="translate(175,380)"/>
<path d="M0 0 C0.99 0 1.98 0 3 0 C3.33 0.66 3.66 1.32 4 2 C4.66 2 5.32 2 6 2 C5.67 3.65 5.34 5.3 5 7 C3.68 6.67 2.36 6.34 1 6 C0.67 4.02 0.34 2.04 0 0 Z " fill="#3E6277" transform="translate(299,367)"/>
<path d="M0 0 C0.66 0.33 1.32 0.66 2 1 C0.71480435 3.86697492 -0.57129254 5.97607712 -3 8 C-3.66 8 -4.32 8 -5 8 C-4.45773019 4.20411134 -2.79872437 2.52788007 0 0 Z " fill="#1C64F1" transform="translate(283,214)"/>
<path d="M0 0 C-2.2551922 2.2551922 -4.0047587 2.97723468 -7 4 C-7.99 4 -8.98 4 -10 4 C-10.33 3.01 -10.66 2.02 -11 1 C-7.32589215 -0.17571451 -3.83070817 -0.07366746 0 0 Z " fill="#4369C8" transform="translate(136,360)"/>
<path d="M0 0 C2.97 0 5.94 0 9 0 C8.67 0.66 8.34 1.32 8 2 C6 2.33333333 4 2.66666667 2 3 C1.67 3.66 1.34 4.32 1 5 C0.67 3.35 0.34 1.7 0 0 Z " fill="#3B5084" transform="translate(263,360)"/>
<path d="M0 0 C8.19256018 -0.4726477 8.19256018 -0.4726477 11.5625 1.5 C12.036875 1.995 12.51125 2.49 13 3 C11.9275 2.79375 10.855 2.5875 9.75 2.375 C6.12380904 2.0123809 4.91708924 2.01637931 2 4 C2 3.01 2 2.02 2 1 C1.34 0.67 0.68 0.34 0 0 Z " fill="#30558F" transform="translate(214,358)"/>
<path d="M0 0 C0.5534764 2.07553648 1 3.84365964 1 6 C1.66 6 2.32 6 3 6 C3 6.66 3 7.32 3 8 C1.35 8.66 -0.3 9.32 -2 10 C-2 2 -2 2 0 0 Z " fill="#1655EA" transform="translate(110,338)"/>
<path d="M0 0 C5.53846154 -0.36923077 5.53846154 -0.36923077 7.875 1.5 C8.24625 1.995 8.6175 2.49 9 3 C8.34 3.66 7.68 4.32 7 5 C5.68 4.34 4.36 3.68 3 3 C3 3.66 3 4.32 3 5 C2.01 4.67 1.02 4.34 0 4 C0.66 4 1.32 4 2 4 C1.34 2.68 0.68 1.36 0 0 Z " fill="#5D6298" transform="translate(277,366)"/>
<path d="M0 0 C2.31 0 4.62 0 7 0 C7 0.66 7 1.32 7 2 C6.01 2 5.02 2 4 2 C4 2.66 4 3.32 4 4 C5.65 4.33 7.3 4.66 9 5 C8.67 5.66 8.34 6.32 8 7 C6.35 6.67 4.7 6.34 3 6 C3 4.68 3 3.36 3 2 C2.01 2 1.02 2 0 2 C0 1.34 0 0.68 0 0 Z " fill="#495D7D" transform="translate(248,359)"/>
<path d="M0 0 C1.98 0.99 1.98 0.99 4 2 C4 3.32 4 4.64 4 6 C4.30404678 7.67225729 4.63128912 9.34080104 5 11 C4.34 11 3.68 11 3 11 C2.49384702 9.73160474 1.99530901 8.46016898 1.5 7.1875 C1.2215625 6.47980469 0.943125 5.77210938 0.65625 5.04296875 C0 3 0 3 0 0 Z " fill="#1E6DF7" transform="translate(352,164)"/>
<path d="M0 0 C0.598125 0.20625 1.19625 0.4125 1.8125 0.625 C1.4825 1.285 1.1525 1.945 0.8125 2.625 C1.4725 2.955 2.1325 3.285 2.8125 3.625 C0.1725 3.955 -2.4675 4.285 -5.1875 4.625 C-5.1875 3.635 -5.1875 2.645 -5.1875 1.625 C-2.1875 -0.375 -2.1875 -0.375 0 0 Z " fill="#394A5C" transform="translate(285.1875,376.375)"/>
<path d="M0 0 C0.66 0.33 1.32 0.66 2 1 C2.625 4.0625 2.625 4.0625 3 7 C1.02 6.34 -0.96 5.68 -3 5 C-3 3.68 -3 2.36 -3 1 C-2.01 0.67 -1.02 0.34 0 0 Z " fill="#4F7383" transform="translate(295,366)"/>
<path d="M0 0 C0 0.99 0 1.98 0 3 C-1.65 2.67 -3.3 2.34 -5 2 C-5.33 2.99 -5.66 3.98 -6 5 C-6 3.68 -6 2.36 -6 1 C-7.65 1 -9.3 1 -11 1 C-7.2297564 -1.56376565 -4.32597804 -0.83191885 0 0 Z " fill="#41679D" transform="translate(193,358)"/>
<path d="M0 0 C7.42857143 -0.28571429 7.42857143 -0.28571429 11 2 C10.67 2.33 10.34 2.66 10 3 C8.30858344 2.91036938 6.62040398 2.75422324 4.9375 2.5625 C3.55884766 2.40974609 3.55884766 2.40974609 2.15234375 2.25390625 C1.44207031 2.17011719 0.73179687 2.08632812 0 2 C0 1.34 0 0.68 0 0 Z " fill="#1665F3" transform="translate(335,193)"/>
<path d="M0 0 C0.66 0.33 1.32 0.66 2 1 C2 1.66 2 2.32 2 3 C-0.66666667 4.33333333 -3.33333333 5.66666667 -6 7 C-5.8125 5.1875 -5.8125 5.1875 -5 3 C-2.5625 1.1875 -2.5625 1.1875 0 0 Z " fill="#3D6378" transform="translate(315,368)"/>
<path d="M0 0 C-1.32 0.33 -2.64 0.66 -4 1 C-4 1.99 -4 2.98 -4 4 C-6.97 3.505 -6.97 3.505 -10 3 C-9 1 -9 1 -6.6875 -0.1875 C-3.88010429 -1.03624754 -2.698065 -0.99928333 0 0 Z " fill="#3053C2" transform="translate(100,365)"/>
<path d="M0 0 C0 0.66 0 1.32 0 2 C-0.639375 2.268125 -1.27875 2.53625 -1.9375 2.8125 C-4.33131686 3.88667752 -4.33131686 3.88667752 -5 7 C-5.66 7 -6.32 7 -7 7 C-7 5.35 -7 3.7 -7 2 C-4.35261084 0.5393715 -3.10551666 0 0 0 Z " fill="#1D85FB" transform="translate(267,196)"/>
<path d="M0 0 C1.65 0.33 3.3 0.66 5 1 C5 1.99 5 2.98 5 4 C1.7 4 -1.6 4 -5 4 C-5 3.67 -5 3.34 -5 3 C-3.35 3 -1.7 3 0 3 C0 2.01 0 1.02 0 0 Z " fill="#2C5D87" transform="translate(152,379)"/>
<path d="M0 0 C-0.33 0.99 -0.66 1.98 -1 3 C-3.31 3 -5.62 3 -8 3 C-8.33 2.34 -8.66 1.68 -9 1 C-2.25 -1.125 -2.25 -1.125 0 0 Z " fill="#41576A" transform="translate(270,379)"/>
<path d="M0 0 C0.99 0.33 1.98 0.66 3 1 C2.67 1.66 2.34 2.32 2 3 C2.66 3.33 3.32 3.66 4 4 C0.37 4 -3.26 4 -7 4 C-7 3.67 -7 3.34 -7 3 C-5.5459375 2.5359375 -5.5459375 2.5359375 -4.0625 2.0625 C-1.15934208 1.30476658 -1.15934208 1.30476658 0 0 Z " fill="#475F9E" transform="translate(147,378)"/>
<path d="M0 0 C1.67542976 0.28604898 3.34385343 0.61781233 5 1 C5 1.66 5 2.32 5 3 C6.65 3.33 8.3 3.66 10 4 C6.71023192 5.09658936 5.28696233 4.79953138 2 4 C2 3.34 2 2.68 2 2 C1.01 1.67 0.02 1.34 -1 1 C-0.67 0.67 -0.34 0.34 0 0 Z " fill="#5D6696" transform="translate(285,362)"/>
<path d="M0 0 C1.485 0.99 1.485 0.99 3 2 C3.1875 4.625 3.1875 4.625 3 7 C1.68 7 0.36 7 -1 7 C-0.67 4.69 -0.34 2.38 0 0 Z " fill="#1863F0" transform="translate(121,293)"/>
<path d="M0 0 C-0.33 0.99 -0.66 1.98 -1 3 C-0.34 3.33 0.32 3.66 1 4 C-1.64 3.67 -4.28 3.34 -7 3 C-7 2.34 -7 1.68 -7 1 C-4.53721199 -0.231394 -2.7204945 -0.07159196 0 0 Z " fill="#1553DB" transform="translate(153,339)"/>
<path d="M0 0 C2.64752004 2.57784846 4.94432065 4.91648098 7 8 C4.04590299 6.62845496 1.55991624 5.01136276 -1 3 C-0.67 2.01 -0.34 1.02 0 0 Z " fill="#369EFE" transform="translate(339,149)"/>
<path d="M0 0 C5.75 1.75 5.75 1.75 8 4 C3.82412255 5.39195915 1.86525224 3.82323219 -2 2 C-1.34 1.34 -0.68 0.68 0 0 Z " fill="#3190FC" transform="translate(309,125)"/>
<path d="M0 0 C1.65 1.65 3.3 3.3 5 5 C2.36 5 -0.28 5 -3 5 C-2.34 4.67 -1.68 4.34 -1 4 C-0.34786708 1.97536745 -0.34786708 1.97536745 0 0 Z " fill="#455971" transform="translate(273,376)"/>
<path d="M0 0 C1.65 0 3.3 0 5 0 C5 1.32 5 2.64 5 4 C2.69 3.67 0.38 3.34 -2 3 C-1.34 2.67 -0.68 2.34 0 2 C0 1.34 0 0.68 0 0 Z " fill="#394373" transform="translate(309,364)"/>
<path d="M0 0 C0.99 0.33 1.98 0.66 3 1 C0.03 3.475 0.03 3.475 -3 6 C-3.66 5.34 -4.32 4.68 -5 4 C-2.6875 1.9375 -2.6875 1.9375 0 0 Z " fill="#1961EE" transform="translate(95,317)"/>
<path d="M0 0 C0 0.99 0 1.98 0 3 C0.99 3.33 1.98 3.66 3 4 C0.36 4.33 -2.28 4.66 -5 5 C-4.625 3.0625 -4.625 3.0625 -4 1 C-2 0 -2 0 0 0 Z " fill="#21A7FC" transform="translate(319,166)"/>
<path d="M0 0 C1.32 0 2.64 0 4 0 C4 1.98 4 3.96 4 6 C3.01 6 2.02 6 1 6 C0.67 4.02 0.34 2.04 0 0 Z " fill="#565B92" transform="translate(259,373)"/>
<path d="M0 0 C-1 2 -1 2 -3 5 C-3.99 4.67 -4.98 4.34 -6 4 C-6.33 3.01 -6.66 2.02 -7 1 C-4 0 -4 0 0 0 Z " fill="#1736AC" transform="translate(78,368)"/>
<path d="M0 0 C-2.63904371 1.41377341 -5.07120629 2.37240135 -8 3 C-8 2.34 -8 1.68 -8 1 C-8.66 0.67 -9.32 0.34 -10 0 C-6.30581799 -1.231394 -3.7943739 -0.64432764 0 0 Z " fill="#375281" transform="translate(298,362)"/>
<path d="M0 0 C1.98 0 3.96 0 6 0 C5.67 1.65 5.34 3.3 5 5 C4.01 5.33 3.02 5.66 2 6 C1.34 4.02 0.68 2.04 0 0 Z " fill="#0D62FA" transform="translate(312,162)"/>
<path d="M0 0 C0.66 0.33 1.32 0.66 2 1 C-0.475 4.465 -0.475 4.465 -3 8 C-3.99 7.34 -4.98 6.68 -6 6 C-4.02 4.02 -2.04 2.04 0 0 Z " fill="#318AF8" transform="translate(135,157)"/>
<path d="M0 0 C1.8125 0.1875 1.8125 0.1875 4 1 C5.75 3.5625 5.75 3.5625 7 6 C5.1875 5.8125 5.1875 5.8125 3 5 C1.25 2.4375 1.25 2.4375 0 0 Z " fill="#2A84F8" transform="translate(340,149)"/>
<path d="M0 0 C1.98 1.65 3.96 3.3 6 5 C5.67 5.66 5.34 6.32 5 7 C4.34 7 3.68 7 3 7 C1.61061923 5.03852126 0.2739589 3.03833424 -1 1 C-0.67 0.67 -0.34 0.34 0 0 Z " fill="#2175FA" transform="translate(143,113)"/>
<path d="M0 0 C1.2065625 0.0309375 1.2065625 0.0309375 2.4375 0.0625 C2.4375 1.0525 2.4375 2.0425 2.4375 3.0625 C0.7875 3.3925 -0.8625 3.7225 -2.5625 4.0625 C-2.8925 3.0725 -3.2225 2.0825 -3.5625 1.0625 C-2.5625 0.0625 -2.5625 0.0625 0 0 Z " fill="#525E8D" transform="translate(297.5625,373.9375)"/>
<path d="M0 0 C0 0.66 0 1.32 0 2 C-2.31 2 -4.62 2 -7 2 C-7 1.34 -7 0.68 -7 0 C-3.86650268 -1.04449911 -3.01031744 -0.93423645 0 0 Z " fill="#3154BE" transform="translate(83,372)"/>
<path d="M0 0 C1.875 0.1875 1.875 0.1875 4 1 C5.25 3.5625 5.25 3.5625 6 6 C3.69 5.01 1.38 4.02 -1 3 C-0.67 2.01 -0.34 1.02 0 0 Z " fill="#2E89F9" transform="translate(255,203)"/>
<path d="M0 0 C1.65 0.33 3.3 0.66 5 1 C4.67 1.99 4.34 2.98 4 4 C1.69 4 -0.62 4 -3 4 C-2.01 3.67 -1.02 3.34 0 3 C0 2.01 0 1.02 0 0 Z " fill="#1A5CDD" transform="translate(371,201)"/>
<path d="M0 0 C2 1 2 1 2 1 Z " fill="#0055FF" transform="translate(169,93)"/>
<path d="" fill="#0000FF" transform="translate(0,0)"/>
<path d="" fill="#0000FF" transform="translate(0,0)"/>
<path d="" fill="#0000FF" transform="translate(0,0)"/>
<path d="" fill="#0000FF" transform="translate(0,0)"/>
</svg>
